<svg width="117" height="20" viewBox="0 0 117 20" fill="none" xmlns="http://www.w3.org/2000/svg">
<path d="M9.00002 1.6665L11.575 6.88317L17.3334 7.72484L13.1667 11.7832L14.15 17.5165L9.00002 14.8082L3.85002 17.5165L4.83335 11.7832L0.666687 7.72484L6.42502 6.88317L9.00002 1.6665Z" fill="#FC7421"/>
<path d="M33.3333 1.6665L35.9083 6.88317L41.6667 7.72484L37.5 11.7832L38.4833 17.5165L33.3333 14.8082L28.1833 17.5165L29.1667 11.7832L25 7.72484L30.7583 6.88317L33.3333 1.6665Z" fill="#FC7421"/>
<path d="M57.3333 1.6665L59.9083 6.88317L65.6667 7.72484L61.5 11.7832L62.4833 17.5165L57.3333 14.8082L52.1833 17.5165L53.1667 11.7832L49 7.72484L54.7583 6.88317L57.3333 1.6665Z" fill="#FC7421"/>
<path d="M81.3333 1.6665L83.9083 6.88317L89.6667 7.72484L85.5 11.7832L86.4833 17.5165L81.3333 14.8082L76.1833 17.5165L77.1667 11.7832L73 7.72484L78.7583 6.88317L81.3333 1.6665Z" fill="#FC7421"/>
<path d="M105.333 1.6665L107.908 6.88317L113.667 7.72484L109.5 11.7832L110.483 17.5165L105.333 14.8082L100.183 17.5165L101.167 11.7832L97 7.72484L102.758 6.88317L105.333 1.6665Z" fill="#FC7421"/>
</svg>
