<svg width="750" height="484" viewBox="0 0 750 484" fill="none" xmlns="http://www.w3.org/2000/svg">
<g id="Dashboard-dark" clip-path="url(#clip0_108_8107)">
<path id="Rectangle 3" d="M0 14C0 6.268 6.26801 0 14 0H750V484H0V14Z" fill="#080D18" fill-opacity="0.4"/>
<rect id="Rectangle 7" x="181" y="34" width="282" height="36" rx="18" fill="#0A111F"/>
<path id="Search" d="M204.746 57.168C204.083 57.168 203.477 57.0467 202.926 56.804C202.375 56.552 201.909 56.2113 201.526 55.782C201.143 55.3527 200.868 54.872 200.7 54.34L201.89 53.85C202.142 54.522 202.515 55.04 203.01 55.404C203.514 55.7587 204.102 55.936 204.774 55.936C205.185 55.936 205.544 55.8707 205.852 55.74C206.16 55.6093 206.398 55.4273 206.566 55.194C206.743 54.9513 206.832 54.6713 206.832 54.354C206.832 53.9153 206.706 53.57 206.454 53.318C206.211 53.0567 205.852 52.8607 205.376 52.73L203.458 52.142C202.702 51.9087 202.123 51.54 201.722 51.036C201.321 50.532 201.12 49.9533 201.12 49.3C201.12 48.7307 201.255 48.2313 201.526 47.802C201.806 47.3633 202.189 47.0227 202.674 46.78C203.169 46.528 203.729 46.402 204.354 46.402C204.979 46.402 205.544 46.514 206.048 46.738C206.561 46.962 206.995 47.2653 207.35 47.648C207.705 48.0213 207.966 48.4507 208.134 48.936L206.958 49.426C206.734 48.838 206.398 48.3947 205.95 48.096C205.502 47.788 204.975 47.634 204.368 47.634C203.995 47.634 203.663 47.6993 203.374 47.83C203.094 47.9513 202.875 48.1333 202.716 48.376C202.567 48.6093 202.492 48.8893 202.492 49.216C202.492 49.5987 202.613 49.9393 202.856 50.238C203.099 50.5367 203.467 50.7653 203.962 50.924L205.712 51.442C206.533 51.694 207.154 52.0533 207.574 52.52C207.994 52.9867 208.204 53.5653 208.204 54.256C208.204 54.8253 208.055 55.3293 207.756 55.768C207.467 56.2067 207.061 56.552 206.538 56.804C206.025 57.0467 205.427 57.168 204.746 57.168ZM213.531 57.168C212.803 57.168 212.154 56.9953 211.585 56.65C211.015 56.3047 210.567 55.8333 210.241 55.236C209.914 54.6293 209.751 53.9527 209.751 53.206C209.751 52.45 209.909 51.778 210.227 51.19C210.553 50.602 210.992 50.14 211.543 49.804C212.103 49.4587 212.728 49.286 213.419 49.286C213.979 49.286 214.473 49.3887 214.903 49.594C215.341 49.79 215.71 50.0607 216.009 50.406C216.317 50.742 216.55 51.1293 216.709 51.568C216.877 51.9973 216.961 52.4453 216.961 52.912C216.961 53.0147 216.951 53.1313 216.933 53.262C216.923 53.3833 216.909 53.5 216.891 53.612H210.703V52.492H216.135L215.519 52.996C215.603 52.5107 215.556 52.0767 215.379 51.694C215.201 51.3113 214.94 51.008 214.595 50.784C214.249 50.56 213.857 50.448 213.419 50.448C212.98 50.448 212.579 50.56 212.215 50.784C211.851 51.008 211.566 51.33 211.361 51.75C211.165 52.1607 211.085 52.6507 211.123 53.22C211.085 53.7707 211.169 54.256 211.375 54.676C211.589 55.0867 211.888 55.4087 212.271 55.642C212.663 55.866 213.087 55.978 213.545 55.978C214.049 55.978 214.473 55.8613 214.819 55.628C215.164 55.3947 215.444 55.096 215.659 54.732L216.751 55.292C216.601 55.6373 216.368 55.9547 216.051 56.244C215.743 56.524 215.374 56.748 214.945 56.916C214.525 57.084 214.053 57.168 213.531 57.168ZM220.775 57.168C220.28 57.168 219.841 57.0793 219.459 56.902C219.085 56.7153 218.791 56.4633 218.577 56.146C218.362 55.8193 218.255 55.446 218.255 55.026C218.255 54.6247 218.339 54.2653 218.507 53.948C218.684 53.6213 218.955 53.346 219.319 53.122C219.692 52.898 220.159 52.7393 220.719 52.646L223.519 52.184V53.276L221.013 53.696C220.527 53.78 220.173 53.934 219.949 54.158C219.734 54.382 219.627 54.6573 219.627 54.984C219.627 55.292 219.748 55.5487 219.991 55.754C220.243 55.9593 220.555 56.062 220.929 56.062C221.405 56.062 221.815 55.964 222.161 55.768C222.515 55.5627 222.791 55.2873 222.987 54.942C223.192 54.5967 223.295 54.214 223.295 53.794V51.876C223.295 51.4653 223.141 51.134 222.833 50.882C222.534 50.6207 222.137 50.49 221.643 50.49C221.213 50.49 220.831 50.602 220.495 50.826C220.168 51.0407 219.925 51.33 219.767 51.694L218.633 51.106C218.773 50.7607 218.997 50.4527 219.305 50.182C219.613 49.902 219.972 49.6827 220.383 49.524C220.793 49.3653 221.223 49.286 221.671 49.286C222.249 49.286 222.758 49.398 223.197 49.622C223.635 49.8367 223.976 50.14 224.219 50.532C224.471 50.9147 224.597 51.3627 224.597 51.876V57H223.323V55.572L223.561 55.656C223.402 55.9547 223.187 56.216 222.917 56.44C222.646 56.664 222.329 56.8413 221.965 56.972C221.601 57.1027 221.204 57.168 220.775 57.168ZM226.615 57V49.454H227.889V50.84L227.749 50.644C227.927 50.2147 228.197 49.8973 228.561 49.692C228.925 49.4773 229.369 49.37 229.891 49.37H230.353V50.602H229.695C229.163 50.602 228.734 50.77 228.407 51.106C228.081 51.4327 227.917 51.8993 227.917 52.506V57H226.615ZM235.01 57.168C234.273 57.168 233.615 56.9953 233.036 56.65C232.467 56.3047 232.019 55.8333 231.692 55.236C231.365 54.6387 231.202 53.9667 231.202 53.22C231.202 52.464 231.365 51.792 231.692 51.204C232.019 50.616 232.467 50.1493 233.036 49.804C233.615 49.4587 234.273 49.286 235.01 49.286C235.505 49.286 235.967 49.3747 236.396 49.552C236.825 49.7293 237.203 49.9673 237.53 50.266C237.857 50.5647 238.095 50.9147 238.244 51.316L237.082 51.876C236.905 51.484 236.634 51.1667 236.27 50.924C235.906 50.672 235.486 50.546 235.01 50.546C234.553 50.546 234.137 50.6627 233.764 50.896C233.4 51.1293 233.111 51.4467 232.896 51.848C232.681 52.2493 232.574 52.7113 232.574 53.234C232.574 53.738 232.681 54.1953 232.896 54.606C233.111 55.0073 233.4 55.3247 233.764 55.558C234.137 55.7913 234.553 55.908 235.01 55.908C235.486 55.908 235.906 55.7867 236.27 55.544C236.634 55.292 236.905 54.9607 237.082 54.55L238.244 55.138C238.095 55.53 237.857 55.88 237.53 56.188C237.203 56.4867 236.825 56.7247 236.396 56.902C235.967 57.0793 235.505 57.168 235.01 57.168ZM239.946 57V46.402H241.248V50.924L241.01 50.798C241.196 50.322 241.495 49.9533 241.906 49.692C242.326 49.4213 242.816 49.286 243.376 49.286C243.917 49.286 244.398 49.4073 244.818 49.65C245.247 49.8927 245.583 50.2287 245.826 50.658C246.078 51.0873 246.204 51.5727 246.204 52.114V57H244.888V52.534C244.888 52.114 244.808 51.7593 244.65 51.47C244.5 51.1807 244.29 50.9567 244.02 50.798C243.749 50.63 243.436 50.546 243.082 50.546C242.736 50.546 242.424 50.63 242.144 50.798C241.864 50.9567 241.644 51.1853 241.486 51.484C241.327 51.7733 241.248 52.1233 241.248 52.534V57H239.946Z" fill="white" fill-opacity="0.4"/>
<path id="Rectangle 4" d="M181 112C181 104.268 187.268 98 195 98H750V484H181V112Z" fill="#0A111F"/>
<path id="Vector 36" d="M181 201H750" stroke="#2E2E2E" stroke-linecap="round"/>
<path id="Vector 37" d="M207 201L281 201" stroke="white" stroke-width="1.5" stroke-linecap="round"/>
<path id="Lead Designer" d="M261.494 145V131.59H263.258V143.38H269.144V145H261.494ZM275.393 145.216C274.457 145.216 273.623 144.994 272.891 144.55C272.159 144.106 271.583 143.5 271.163 142.732C270.743 141.952 270.533 141.082 270.533 140.122C270.533 139.15 270.737 138.286 271.145 137.53C271.565 136.774 272.129 136.18 272.837 135.748C273.557 135.304 274.361 135.082 275.249 135.082C275.969 135.082 276.605 135.214 277.157 135.478C277.721 135.73 278.195 136.078 278.579 136.522C278.975 136.954 279.275 137.452 279.479 138.016C279.695 138.568 279.803 139.144 279.803 139.744C279.803 139.876 279.791 140.026 279.767 140.194C279.755 140.35 279.737 140.5 279.713 140.644H271.757V139.204H278.741L277.949 139.852C278.057 139.228 277.997 138.67 277.769 138.178C277.541 137.686 277.205 137.296 276.761 137.008C276.317 136.72 275.813 136.576 275.249 136.576C274.685 136.576 274.169 136.72 273.701 137.008C273.233 137.296 272.867 137.71 272.603 138.25C272.351 138.778 272.249 139.408 272.297 140.14C272.249 140.848 272.357 141.472 272.621 142.012C272.897 142.54 273.281 142.954 273.773 143.254C274.277 143.542 274.823 143.686 275.411 143.686C276.059 143.686 276.605 143.536 277.049 143.236C277.493 142.936 277.853 142.552 278.129 142.084L279.533 142.804C279.341 143.248 279.041 143.656 278.633 144.028C278.237 144.388 277.763 144.676 277.211 144.892C276.671 145.108 276.065 145.216 275.393 145.216ZM284.706 145.216C284.07 145.216 283.506 145.102 283.014 144.874C282.534 144.634 282.156 144.31 281.88 143.902C281.604 143.482 281.466 143.002 281.466 142.462C281.466 141.946 281.574 141.484 281.79 141.076C282.018 140.656 282.366 140.302 282.834 140.014C283.314 139.726 283.914 139.522 284.634 139.402L288.234 138.808V140.212L285.012 140.752C284.388 140.86 283.932 141.058 283.644 141.346C283.368 141.634 283.23 141.988 283.23 142.408C283.23 142.804 283.386 143.134 283.698 143.398C284.022 143.662 284.424 143.794 284.904 143.794C285.516 143.794 286.044 143.668 286.488 143.416C286.944 143.152 287.298 142.798 287.55 142.354C287.814 141.91 287.946 141.418 287.946 140.878V138.412C287.946 137.884 287.748 137.458 287.352 137.134C286.968 136.798 286.458 136.63 285.822 136.63C285.27 136.63 284.778 136.774 284.346 137.062C283.926 137.338 283.614 137.71 283.41 138.178L281.952 137.422C282.132 136.978 282.42 136.582 282.816 136.234C283.212 135.874 283.674 135.592 284.202 135.388C284.73 135.184 285.282 135.082 285.858 135.082C286.602 135.082 287.256 135.226 287.82 135.514C288.384 135.79 288.822 136.18 289.134 136.684C289.458 137.176 289.62 137.752 289.62 138.412V145H287.982V143.164L288.288 143.272C288.084 143.656 287.808 143.992 287.46 144.28C287.112 144.568 286.704 144.796 286.236 144.964C285.768 145.132 285.258 145.216 284.706 145.216ZM296.626 145.216C295.714 145.216 294.892 144.994 294.16 144.55C293.44 144.106 292.87 143.5 292.45 142.732C292.03 141.964 291.82 141.106 291.82 140.158C291.82 139.186 292.03 138.322 292.45 137.566C292.87 136.798 293.44 136.192 294.16 135.748C294.892 135.304 295.714 135.082 296.626 135.082C297.43 135.082 298.144 135.256 298.768 135.604C299.392 135.94 299.884 136.396 300.244 136.972L299.974 137.386V131.374H301.666V145H300.028V142.93L300.244 143.218C299.908 143.854 299.416 144.346 298.768 144.694C298.132 145.042 297.418 145.216 296.626 145.216ZM296.77 143.596C297.382 143.596 297.928 143.446 298.408 143.146C298.888 142.846 299.266 142.438 299.542 141.922C299.83 141.394 299.974 140.806 299.974 140.158C299.974 139.498 299.83 138.91 299.542 138.394C299.266 137.866 298.888 137.452 298.408 137.152C297.928 136.852 297.382 136.702 296.77 136.702C296.17 136.702 295.624 136.858 295.132 137.17C294.652 137.47 294.274 137.878 293.998 138.394C293.722 138.898 293.584 139.486 293.584 140.158C293.584 140.806 293.722 141.394 293.998 141.922C294.274 142.438 294.652 142.846 295.132 143.146C295.612 143.446 296.158 143.596 296.77 143.596ZM307.566 145V131.59H311.958C313.314 131.59 314.496 131.866 315.504 132.418C316.512 132.97 317.292 133.75 317.844 134.758C318.396 135.754 318.672 136.93 318.672 138.286C318.672 139.63 318.396 140.806 317.844 141.814C317.292 142.822 316.512 143.608 315.504 144.172C314.496 144.724 313.314 145 311.958 145H307.566ZM309.33 143.38H311.976C312.972 143.38 313.83 143.17 314.55 142.75C315.282 142.33 315.846 141.742 316.242 140.986C316.638 140.218 316.836 139.318 316.836 138.286C316.836 137.242 316.632 136.342 316.224 135.586C315.828 134.83 315.264 134.248 314.532 133.84C313.812 133.42 312.96 133.21 311.976 133.21H309.33V143.38ZM325.174 145.216C324.238 145.216 323.404 144.994 322.672 144.55C321.94 144.106 321.364 143.5 320.944 142.732C320.524 141.952 320.314 141.082 320.314 140.122C320.314 139.15 320.518 138.286 320.926 137.53C321.346 136.774 321.91 136.18 322.618 135.748C323.338 135.304 324.142 135.082 325.03 135.082C325.75 135.082 326.386 135.214 326.938 135.478C327.502 135.73 327.976 136.078 328.36 136.522C328.756 136.954 329.056 137.452 329.26 138.016C329.476 138.568 329.584 139.144 329.584 139.744C329.584 139.876 329.572 140.026 329.548 140.194C329.536 140.35 329.518 140.5 329.494 140.644H321.538V139.204H328.522L327.73 139.852C327.838 139.228 327.778 138.67 327.55 138.178C327.322 137.686 326.986 137.296 326.542 137.008C326.098 136.72 325.594 136.576 325.03 136.576C324.466 136.576 323.95 136.72 323.482 137.008C323.014 137.296 322.648 137.71 322.384 138.25C322.132 138.778 322.03 139.408 322.078 140.14C322.03 140.848 322.138 141.472 322.402 142.012C322.678 142.54 323.062 142.954 323.554 143.254C324.058 143.542 324.604 143.686 325.192 143.686C325.84 143.686 326.386 143.536 326.83 143.236C327.274 142.936 327.634 142.552 327.91 142.084L329.314 142.804C329.122 143.248 328.822 143.656 328.414 144.028C328.018 144.388 327.544 144.676 326.992 144.892C326.452 145.108 325.846 145.216 325.174 145.216ZM335.241 145.216C334.269 145.216 333.423 144.976 332.703 144.496C331.983 144.016 331.473 143.368 331.173 142.552L332.505 141.904C332.781 142.48 333.159 142.936 333.639 143.272C334.119 143.608 334.653 143.776 335.241 143.776C335.769 143.776 336.207 143.65 336.555 143.398C336.903 143.146 337.077 142.816 337.077 142.408C337.077 142.12 336.993 141.892 336.825 141.724C336.669 141.544 336.477 141.406 336.249 141.31C336.021 141.202 335.811 141.124 335.619 141.076L334.161 140.662C333.285 140.41 332.643 140.05 332.235 139.582C331.839 139.114 331.641 138.568 331.641 137.944C331.641 137.368 331.785 136.87 332.073 136.45C332.373 136.018 332.775 135.682 333.279 135.442C333.795 135.202 334.371 135.082 335.007 135.082C335.859 135.082 336.621 135.298 337.293 135.73C337.977 136.162 338.463 136.768 338.751 137.548L337.383 138.178C337.167 137.674 336.843 137.278 336.411 136.99C335.979 136.69 335.493 136.54 334.953 136.54C334.461 136.54 334.071 136.666 333.783 136.918C333.495 137.158 333.351 137.464 333.351 137.836C333.351 138.112 333.423 138.34 333.567 138.52C333.711 138.688 333.885 138.82 334.089 138.916C334.293 139 334.491 139.072 334.683 139.132L336.267 139.6C337.059 139.828 337.671 140.182 338.103 140.662C338.547 141.142 338.769 141.718 338.769 142.39C338.769 142.93 338.619 143.416 338.319 143.848C338.019 144.28 337.605 144.616 337.077 144.856C336.549 145.096 335.937 145.216 335.241 145.216ZM340.96 145V135.298H342.634V145H340.96ZM340.96 133.75V131.59H342.634V133.75H340.96ZM349.858 148.96C349.174 148.96 348.538 148.852 347.95 148.636C347.374 148.42 346.876 148.12 346.456 147.736C346.048 147.364 345.736 146.926 345.52 146.422L347.086 145.702C347.254 146.158 347.572 146.542 348.04 146.854C348.52 147.178 349.12 147.34 349.84 147.34C350.392 147.34 350.89 147.232 351.334 147.016C351.79 146.812 352.15 146.5 352.414 146.08C352.678 145.672 352.81 145.174 352.81 144.586V142.408L353.116 142.732C352.78 143.392 352.294 143.896 351.658 144.244C351.034 144.592 350.344 144.766 349.588 144.766C348.676 144.766 347.86 144.556 347.14 144.136C346.42 143.704 345.856 143.122 345.448 142.39C345.04 141.646 344.836 140.824 344.836 139.924C344.836 139.012 345.04 138.19 345.448 137.458C345.856 136.726 346.414 136.15 347.122 135.73C347.842 135.298 348.658 135.082 349.57 135.082C350.326 135.082 351.01 135.256 351.622 135.604C352.246 135.94 352.744 136.408 353.116 137.008L352.864 137.458V135.298H354.502V144.586C354.502 145.426 354.304 146.176 353.908 146.836C353.512 147.496 352.96 148.012 352.252 148.384C351.556 148.768 350.758 148.96 349.858 148.96ZM349.732 143.146C350.308 143.146 350.824 143.002 351.28 142.714C351.748 142.426 352.12 142.042 352.396 141.562C352.672 141.07 352.81 140.524 352.81 139.924C352.81 139.336 352.672 138.796 352.396 138.304C352.12 137.812 351.748 137.422 351.28 137.134C350.824 136.846 350.308 136.702 349.732 136.702C349.144 136.702 348.61 136.846 348.13 137.134C347.65 137.422 347.272 137.812 346.996 138.304C346.732 138.784 346.6 139.324 346.6 139.924C346.6 140.524 346.732 141.07 346.996 141.562C347.272 142.042 347.644 142.426 348.112 142.714C348.592 143.002 349.132 143.146 349.732 143.146ZM357.097 145V135.298H358.735V137.188L358.465 137.026C358.705 136.414 359.089 135.94 359.617 135.604C360.157 135.256 360.787 135.082 361.507 135.082C362.203 135.082 362.821 135.238 363.361 135.55C363.913 135.862 364.345 136.294 364.657 136.846C364.981 137.398 365.143 138.022 365.143 138.718V145H363.451V139.258C363.451 138.718 363.355 138.262 363.163 137.89C362.971 137.518 362.695 137.23 362.335 137.026C361.987 136.81 361.585 136.702 361.129 136.702C360.673 136.702 360.265 136.81 359.905 137.026C359.557 137.23 359.281 137.524 359.077 137.908C358.873 138.28 358.771 138.73 358.771 139.258V145H357.097ZM372.002 145.216C371.066 145.216 370.232 144.994 369.5 144.55C368.768 144.106 368.192 143.5 367.772 142.732C367.352 141.952 367.142 141.082 367.142 140.122C367.142 139.15 367.346 138.286 367.754 137.53C368.174 136.774 368.738 136.18 369.446 135.748C370.166 135.304 370.97 135.082 371.858 135.082C372.578 135.082 373.214 135.214 373.766 135.478C374.33 135.73 374.804 136.078 375.188 136.522C375.584 136.954 375.884 137.452 376.088 138.016C376.304 138.568 376.412 139.144 376.412 139.744C376.412 139.876 376.4 140.026 376.376 140.194C376.364 140.35 376.346 140.5 376.322 140.644H368.366V139.204H375.35L374.558 139.852C374.666 139.228 374.606 138.67 374.378 138.178C374.15 137.686 373.814 137.296 373.37 137.008C372.926 136.72 372.422 136.576 371.858 136.576C371.294 136.576 370.778 136.72 370.31 137.008C369.842 137.296 369.476 137.71 369.212 138.25C368.96 138.778 368.858 139.408 368.906 140.14C368.858 140.848 368.966 141.472 369.23 142.012C369.506 142.54 369.89 142.954 370.382 143.254C370.886 143.542 371.432 143.686 372.02 143.686C372.668 143.686 373.214 143.536 373.658 143.236C374.102 142.936 374.462 142.552 374.738 142.084L376.142 142.804C375.95 143.248 375.65 143.656 375.242 144.028C374.846 144.388 374.372 144.676 373.82 144.892C373.28 145.108 372.674 145.216 372.002 145.216ZM378.595 145V135.298H380.233V137.08L380.053 136.828C380.281 136.276 380.629 135.868 381.097 135.604C381.565 135.328 382.135 135.19 382.807 135.19H383.401V136.774H382.555C381.871 136.774 381.319 136.99 380.899 137.422C380.479 137.842 380.269 138.442 380.269 139.222V145H378.595Z" fill="white"/>
<path id="Applied Jobs" d="M207.132 190L210.336 181.06H211.728L214.932 190H213.672L212.94 187.9H209.124L208.392 190H207.132ZM209.496 186.82H212.568L210.864 181.912H211.2L209.496 186.82ZM215.927 192.4V183.532H217.019V184.924L216.875 184.648C217.115 184.264 217.443 183.96 217.859 183.736C218.275 183.504 218.751 183.388 219.287 183.388C219.895 183.388 220.439 183.536 220.919 183.832C221.407 184.128 221.791 184.532 222.071 185.044C222.351 185.548 222.491 186.124 222.491 186.772C222.491 187.404 222.351 187.976 222.071 188.488C221.791 189 221.407 189.404 220.919 189.7C220.439 189.996 219.891 190.144 219.275 190.144C218.755 190.144 218.279 190.028 217.847 189.796C217.423 189.564 217.095 189.236 216.863 188.812L217.043 188.62V192.4H215.927ZM219.191 189.064C219.599 189.064 219.963 188.964 220.283 188.764C220.603 188.564 220.851 188.292 221.027 187.948C221.211 187.596 221.303 187.204 221.303 186.772C221.303 186.324 221.211 185.932 221.027 185.596C220.851 185.252 220.603 184.98 220.283 184.78C219.963 184.572 219.599 184.468 219.191 184.468C218.783 184.468 218.415 184.568 218.087 184.768C217.767 184.968 217.511 185.244 217.319 185.596C217.135 185.94 217.043 186.332 217.043 186.772C217.043 187.204 217.135 187.596 217.319 187.948C217.511 188.292 217.767 188.564 218.087 188.764C218.415 188.964 218.783 189.064 219.191 189.064ZM223.954 192.4V183.532H225.046V184.924L224.902 184.648C225.142 184.264 225.47 183.96 225.886 183.736C226.302 183.504 226.778 183.388 227.314 183.388C227.922 183.388 228.466 183.536 228.946 183.832C229.434 184.128 229.818 184.532 230.098 185.044C230.378 185.548 230.518 186.124 230.518 186.772C230.518 187.404 230.378 187.976 230.098 188.488C229.818 189 229.434 189.404 228.946 189.7C228.466 189.996 227.918 190.144 227.302 190.144C226.782 190.144 226.306 190.028 225.874 189.796C225.45 189.564 225.122 189.236 224.89 188.812L225.07 188.62V192.4H223.954ZM227.218 189.064C227.626 189.064 227.99 188.964 228.31 188.764C228.63 188.564 228.878 188.292 229.054 187.948C229.238 187.596 229.33 187.204 229.33 186.772C229.33 186.324 229.238 185.932 229.054 185.596C228.878 185.252 228.63 184.98 228.31 184.78C227.99 184.572 227.626 184.468 227.218 184.468C226.81 184.468 226.442 184.568 226.114 184.768C225.794 184.968 225.538 185.244 225.346 185.596C225.162 185.94 225.07 186.332 225.07 186.772C225.07 187.204 225.162 187.596 225.346 187.948C225.538 188.292 225.794 188.564 226.114 188.764C226.442 188.964 226.81 189.064 227.218 189.064ZM231.981 190V180.916H233.097V190H231.981ZM234.829 190V183.532H235.945V190H234.829ZM234.829 182.5V181.06H235.945V182.5H234.829ZM240.653 190.144C240.029 190.144 239.473 189.996 238.985 189.7C238.497 189.404 238.113 189 237.833 188.488C237.553 187.968 237.413 187.388 237.413 186.748C237.413 186.1 237.549 185.524 237.821 185.02C238.101 184.516 238.477 184.12 238.949 183.832C239.429 183.536 239.965 183.388 240.557 183.388C241.037 183.388 241.461 183.476 241.829 183.652C242.205 183.82 242.521 184.052 242.777 184.348C243.041 184.636 243.241 184.968 243.377 185.344C243.521 185.712 243.592 186.096 243.592 186.496C243.592 186.584 243.585 186.684 243.569 186.796C243.561 186.9 243.549 187 243.533 187.096H238.229V186.136H242.885L242.357 186.568C242.429 186.152 242.389 185.78 242.237 185.452C242.085 185.124 241.861 184.864 241.565 184.672C241.269 184.48 240.933 184.384 240.557 184.384C240.181 184.384 239.837 184.48 239.525 184.672C239.213 184.864 238.969 185.14 238.793 185.5C238.625 185.852 238.557 186.272 238.589 186.76C238.557 187.232 238.629 187.648 238.805 188.008C238.989 188.36 239.245 188.636 239.573 188.836C239.909 189.028 240.273 189.124 240.665 189.124C241.097 189.124 241.461 189.024 241.757 188.824C242.053 188.624 242.293 188.368 242.477 188.056L243.413 188.536C243.285 188.832 243.085 189.104 242.812 189.352C242.549 189.592 242.233 189.784 241.865 189.928C241.505 190.072 241.101 190.144 240.653 190.144ZM247.988 190.144C247.38 190.144 246.832 189.996 246.344 189.7C245.864 189.404 245.484 189 245.204 188.488C244.924 187.976 244.784 187.404 244.784 186.772C244.784 186.124 244.924 185.548 245.204 185.044C245.484 184.532 245.864 184.128 246.344 183.832C246.832 183.536 247.38 183.388 247.988 183.388C248.524 183.388 249 183.504 249.416 183.736C249.832 183.96 250.16 184.264 250.4 184.648L250.22 184.924V180.916H251.348V190H250.256V188.62L250.4 188.812C250.176 189.236 249.848 189.564 249.416 189.796C248.992 190.028 248.516 190.144 247.988 190.144ZM248.084 189.064C248.492 189.064 248.856 188.964 249.176 188.764C249.496 188.564 249.748 188.292 249.932 187.948C250.124 187.596 250.22 187.204 250.22 186.772C250.22 186.332 250.124 185.94 249.932 185.596C249.748 185.244 249.496 184.968 249.176 184.768C248.856 184.568 248.492 184.468 248.084 184.468C247.684 184.468 247.32 184.572 246.992 184.78C246.672 184.98 246.42 185.252 246.236 185.596C246.052 185.932 245.96 186.324 245.96 186.772C245.96 187.204 246.052 187.596 246.236 187.948C246.42 188.292 246.672 188.564 246.992 188.764C247.312 188.964 247.676 189.064 248.084 189.064ZM254.885 190V188.86H255.377C255.801 188.86 256.137 188.736 256.385 188.488C256.633 188.232 256.757 187.888 256.757 187.456V181.06H257.945V187.432C257.945 187.952 257.837 188.404 257.621 188.788C257.413 189.172 257.117 189.472 256.733 189.688C256.349 189.896 255.897 190 255.377 190H254.885ZM262.85 190.144C262.226 190.144 261.662 190 261.158 189.712C260.654 189.416 260.254 189.012 259.958 188.5C259.662 187.988 259.514 187.408 259.514 186.76C259.514 186.112 259.658 185.536 259.946 185.032C260.242 184.528 260.642 184.128 261.146 183.832C261.65 183.536 262.218 183.388 262.85 183.388C263.474 183.388 264.038 183.536 264.542 183.832C265.046 184.12 265.442 184.516 265.73 185.02C266.026 185.524 266.174 186.104 266.174 186.76C266.174 187.416 266.022 188 265.718 188.512C265.414 189.016 265.01 189.416 264.506 189.712C264.01 190 263.458 190.144 262.85 190.144ZM262.85 189.064C263.25 189.064 263.61 188.964 263.93 188.764C264.258 188.564 264.514 188.288 264.698 187.936C264.89 187.584 264.986 187.192 264.986 186.76C264.986 186.32 264.89 185.932 264.698 185.596C264.514 185.252 264.258 184.98 263.93 184.78C263.61 184.572 263.25 184.468 262.85 184.468C262.442 184.468 262.074 184.572 261.746 184.78C261.426 184.98 261.17 185.252 260.978 185.596C260.786 185.932 260.69 186.32 260.69 186.76C260.69 187.192 260.786 187.584 260.978 187.936C261.17 188.288 261.426 188.564 261.746 188.764C262.074 188.964 262.442 189.064 262.85 189.064ZM270.978 190.144C270.458 190.144 269.982 190.028 269.55 189.796C269.126 189.564 268.798 189.236 268.566 188.812L268.722 188.62V190H267.63V180.916H268.746V184.924L268.578 184.648C268.818 184.264 269.146 183.96 269.562 183.736C269.978 183.504 270.454 183.388 270.99 183.388C271.598 183.388 272.142 183.536 272.622 183.832C273.11 184.128 273.494 184.532 273.774 185.044C274.054 185.548 274.194 186.124 274.194 186.772C274.194 187.404 274.054 187.976 273.774 188.488C273.494 189 273.11 189.404 272.622 189.7C272.142 189.996 271.594 190.144 270.978 190.144ZM270.894 189.064C271.302 189.064 271.666 188.964 271.986 188.764C272.306 188.564 272.554 188.292 272.73 187.948C272.914 187.596 273.006 187.204 273.006 186.772C273.006 186.324 272.914 185.932 272.73 185.596C272.554 185.252 272.306 184.98 271.986 184.78C271.666 184.572 271.302 184.468 270.894 184.468C270.486 184.468 270.118 184.568 269.79 184.768C269.47 184.968 269.214 185.244 269.022 185.596C268.838 185.94 268.746 186.332 268.746 186.772C268.746 187.204 268.838 187.596 269.022 187.948C269.214 188.292 269.47 188.564 269.79 188.764C270.118 188.964 270.486 189.064 270.894 189.064ZM277.973 190.144C277.325 190.144 276.761 189.984 276.281 189.664C275.801 189.344 275.461 188.912 275.261 188.368L276.149 187.936C276.333 188.32 276.585 188.624 276.905 188.848C277.225 189.072 277.581 189.184 277.973 189.184C278.325 189.184 278.617 189.1 278.849 188.932C279.081 188.764 279.197 188.544 279.197 188.272C279.197 188.08 279.141 187.928 279.029 187.816C278.925 187.696 278.797 187.604 278.645 187.54C278.493 187.468 278.353 187.416 278.225 187.384L277.253 187.108C276.669 186.94 276.241 186.7 275.969 186.388C275.705 186.076 275.573 185.712 275.573 185.296C275.573 184.912 275.669 184.58 275.861 184.3C276.061 184.012 276.329 183.788 276.665 183.628C277.009 183.468 277.393 183.388 277.817 183.388C278.385 183.388 278.893 183.532 279.341 183.82C279.797 184.108 280.121 184.512 280.313 185.032L279.401 185.452C279.257 185.116 279.041 184.852 278.753 184.66C278.465 184.46 278.141 184.36 277.781 184.36C277.453 184.36 277.193 184.444 277.001 184.612C276.809 184.772 276.713 184.976 276.713 185.224C276.713 185.408 276.761 185.56 276.857 185.68C276.953 185.792 277.069 185.88 277.205 185.944C277.341 186 277.473 186.048 277.601 186.088L278.657 186.4C279.185 186.552 279.593 186.788 279.881 187.108C280.177 187.428 280.325 187.812 280.325 188.26C280.325 188.62 280.225 188.944 280.025 189.232C279.825 189.52 279.549 189.744 279.197 189.904C278.845 190.064 278.437 190.144 277.973 190.144Z" fill="white"/>
<path id="Interviews" d="M306.996 190V181.06H308.172V190H306.996ZM310.028 190V183.532H311.12V184.792L310.94 184.684C311.1 184.276 311.356 183.96 311.708 183.736C312.068 183.504 312.488 183.388 312.968 183.388C313.432 183.388 313.844 183.492 314.204 183.7C314.572 183.908 314.86 184.196 315.068 184.564C315.284 184.932 315.392 185.348 315.392 185.812V190H314.264V186.172C314.264 185.812 314.2 185.508 314.072 185.26C313.944 185.012 313.76 184.82 313.52 184.684C313.288 184.54 313.02 184.468 312.716 184.468C312.412 184.468 312.14 184.54 311.9 184.684C311.668 184.82 311.484 185.016 311.348 185.272C311.212 185.52 311.144 185.82 311.144 186.172V190H310.028ZM319.617 190.072C318.985 190.072 318.497 189.892 318.153 189.532C317.817 189.172 317.649 188.664 317.649 188.008V184.6H316.473V183.532H316.713C317.001 183.532 317.229 183.444 317.397 183.268C317.565 183.092 317.649 182.86 317.649 182.572V182.044H318.765V183.532H320.217V184.6H318.765V187.972C318.765 188.188 318.797 188.376 318.861 188.536C318.933 188.696 319.049 188.824 319.209 188.92C319.369 189.008 319.581 189.052 319.845 189.052C319.901 189.052 319.969 189.048 320.049 189.04C320.137 189.032 320.217 189.024 320.289 189.016V190C320.185 190.024 320.069 190.04 319.941 190.048C319.813 190.064 319.705 190.072 319.617 190.072ZM324.547 190.144C323.923 190.144 323.367 189.996 322.879 189.7C322.391 189.404 322.007 189 321.727 188.488C321.447 187.968 321.307 187.388 321.307 186.748C321.307 186.1 321.443 185.524 321.715 185.02C321.995 184.516 322.371 184.12 322.843 183.832C323.323 183.536 323.859 183.388 324.451 183.388C324.931 183.388 325.355 183.476 325.723 183.652C326.099 183.82 326.415 184.052 326.671 184.348C326.935 184.636 327.135 184.968 327.271 185.344C327.415 185.712 327.487 186.096 327.487 186.496C327.487 186.584 327.479 186.684 327.463 186.796C327.455 186.9 327.443 187 327.427 187.096H322.123V186.136H326.779L326.251 186.568C326.323 186.152 326.283 185.78 326.131 185.452C325.979 185.124 325.755 184.864 325.459 184.672C325.163 184.48 324.827 184.384 324.451 184.384C324.075 184.384 323.731 184.48 323.419 184.672C323.107 184.864 322.863 185.14 322.687 185.5C322.519 185.852 322.451 186.272 322.483 186.76C322.451 187.232 322.523 187.648 322.699 188.008C322.883 188.36 323.139 188.636 323.467 188.836C323.803 189.028 324.167 189.124 324.559 189.124C324.991 189.124 325.355 189.024 325.651 188.824C325.947 188.624 326.187 188.368 326.371 188.056L327.307 188.536C327.179 188.832 326.979 189.104 326.707 189.352C326.443 189.592 326.127 189.784 325.759 189.928C325.399 190.072 324.995 190.144 324.547 190.144ZM328.942 190V183.532H330.034V184.72L329.914 184.552C330.066 184.184 330.298 183.912 330.61 183.736C330.922 183.552 331.302 183.46 331.75 183.46H332.146V184.516H331.582C331.126 184.516 330.758 184.66 330.478 184.948C330.198 185.228 330.058 185.628 330.058 186.148V190H328.942ZM334.937 190L332.405 183.532H333.653L335.681 189.004H335.249L337.289 183.532H338.537L335.993 190H334.937ZM339.536 190V183.532H340.652V190H339.536ZM339.536 182.5V181.06H340.652V182.5H339.536ZM345.36 190.144C344.736 190.144 344.18 189.996 343.692 189.7C343.204 189.404 342.82 189 342.54 188.488C342.26 187.968 342.12 187.388 342.12 186.748C342.12 186.1 342.256 185.524 342.528 185.02C342.808 184.516 343.184 184.12 343.656 183.832C344.136 183.536 344.672 183.388 345.264 183.388C345.744 183.388 346.168 183.476 346.536 183.652C346.912 183.82 347.228 184.052 347.484 184.348C347.748 184.636 347.948 184.968 348.084 185.344C348.228 185.712 348.3 186.096 348.3 186.496C348.3 186.584 348.292 186.684 348.276 186.796C348.268 186.9 348.256 187 348.24 187.096H342.936V186.136H347.592L347.064 186.568C347.136 186.152 347.096 185.78 346.944 185.452C346.792 185.124 346.568 184.864 346.272 184.672C345.976 184.48 345.64 184.384 345.264 184.384C344.888 184.384 344.544 184.48 344.232 184.672C343.92 184.864 343.676 185.14 343.5 185.5C343.332 185.852 343.264 186.272 343.296 186.76C343.264 187.232 343.336 187.648 343.512 188.008C343.696 188.36 343.952 188.636 344.28 188.836C344.616 189.028 344.98 189.124 345.372 189.124C345.804 189.124 346.168 189.024 346.464 188.824C346.76 188.624 347 188.368 347.184 188.056L348.12 188.536C347.992 188.832 347.792 189.104 347.52 189.352C347.256 189.592 346.94 189.784 346.572 189.928C346.212 190.072 345.808 190.144 345.36 190.144ZM351.243 190L349.023 183.532H350.259L352.023 188.944L351.591 188.932L353.319 183.532H354.375L356.103 188.932L355.671 188.944L357.447 183.532H358.671L356.451 190H355.383L353.679 184.6H354.015L352.311 190H351.243ZM361.985 190.144C361.337 190.144 360.773 189.984 360.293 189.664C359.813 189.344 359.473 188.912 359.273 188.368L360.161 187.936C360.345 188.32 360.597 188.624 360.917 188.848C361.237 189.072 361.593 189.184 361.985 189.184C362.337 189.184 362.629 189.1 362.861 188.932C363.093 188.764 363.209 188.544 363.209 188.272C363.209 188.08 363.153 187.928 363.041 187.816C362.937 187.696 362.809 187.604 362.657 187.54C362.505 187.468 362.365 187.416 362.237 187.384L361.265 187.108C360.681 186.94 360.253 186.7 359.981 186.388C359.717 186.076 359.585 185.712 359.585 185.296C359.585 184.912 359.681 184.58 359.873 184.3C360.073 184.012 360.341 183.788 360.677 183.628C361.021 183.468 361.405 183.388 361.829 183.388C362.397 183.388 362.905 183.532 363.353 183.82C363.809 184.108 364.133 184.512 364.325 185.032L363.413 185.452C363.269 185.116 363.053 184.852 362.765 184.66C362.477 184.46 362.153 184.36 361.793 184.36C361.465 184.36 361.205 184.444 361.013 184.612C360.821 184.772 360.725 184.976 360.725 185.224C360.725 185.408 360.773 185.56 360.869 185.68C360.965 185.792 361.081 185.88 361.217 185.944C361.353 186 361.485 186.048 361.613 186.088L362.669 186.4C363.197 186.552 363.605 186.788 363.893 187.108C364.189 187.428 364.337 187.812 364.337 188.26C364.337 188.62 364.237 188.944 364.037 189.232C363.837 189.52 363.561 189.744 363.209 189.904C362.857 190.064 362.449 190.144 361.985 190.144Z" fill="white" fill-opacity="0.4"/>
<path id="Analytics" d="M390.132 190L393.336 181.06H394.728L397.932 190H396.672L395.94 187.9H392.124L391.392 190H390.132ZM392.496 186.82H395.568L393.864 181.912H394.2L392.496 186.82ZM398.927 190V183.532H400.019V184.792L399.839 184.684C399.999 184.276 400.255 183.96 400.607 183.736C400.967 183.504 401.387 183.388 401.867 183.388C402.331 183.388 402.743 183.492 403.103 183.7C403.471 183.908 403.759 184.196 403.967 184.564C404.183 184.932 404.291 185.348 404.291 185.812V190H403.163V186.172C403.163 185.812 403.099 185.508 402.971 185.26C402.843 185.012 402.659 184.82 402.419 184.684C402.187 184.54 401.919 184.468 401.615 184.468C401.311 184.468 401.039 184.54 400.799 184.684C400.567 184.82 400.383 185.016 400.247 185.272C400.111 185.52 400.043 185.82 400.043 186.172V190H398.927ZM407.783 190.144C407.359 190.144 406.983 190.068 406.655 189.916C406.335 189.756 406.083 189.54 405.899 189.268C405.715 188.988 405.623 188.668 405.623 188.308C405.623 187.964 405.695 187.656 405.839 187.384C405.991 187.104 406.223 186.868 406.535 186.676C406.855 186.484 407.255 186.348 407.735 186.268L410.135 185.872V186.808L407.987 187.168C407.571 187.24 407.267 187.372 407.075 187.564C406.891 187.756 406.799 187.992 406.799 188.272C406.799 188.536 406.903 188.756 407.111 188.932C407.327 189.108 407.595 189.196 407.915 189.196C408.323 189.196 408.675 189.112 408.971 188.944C409.275 188.768 409.511 188.532 409.679 188.236C409.855 187.94 409.943 187.612 409.943 187.252V185.608C409.943 185.256 409.811 184.972 409.547 184.756C409.291 184.532 408.951 184.42 408.527 184.42C408.159 184.42 407.831 184.516 407.543 184.708C407.263 184.892 407.055 185.14 406.919 185.452L405.947 184.948C406.067 184.652 406.259 184.388 406.523 184.156C406.787 183.916 407.095 183.728 407.447 183.592C407.799 183.456 408.167 183.388 408.551 183.388C409.047 183.388 409.483 183.484 409.859 183.676C410.235 183.86 410.527 184.12 410.735 184.456C410.951 184.784 411.059 185.168 411.059 185.608V190H409.967V188.776L410.171 188.848C410.035 189.104 409.851 189.328 409.619 189.52C409.387 189.712 409.115 189.864 408.803 189.976C408.491 190.088 408.151 190.144 407.783 190.144ZM412.79 190V180.916H413.906V190H412.79ZM415.985 192.64C415.841 192.64 415.697 192.628 415.553 192.604C415.409 192.58 415.273 192.54 415.145 192.484V191.488C415.233 191.504 415.341 191.52 415.469 191.536C415.605 191.56 415.737 191.572 415.865 191.572C416.241 191.572 416.525 191.488 416.717 191.32C416.917 191.16 417.105 190.88 417.281 190.48L417.689 189.508L417.665 190.48L414.905 183.532H416.117L418.265 189.052H417.905L420.041 183.532H421.277L418.361 190.768C418.225 191.112 418.049 191.424 417.833 191.704C417.625 191.992 417.369 192.22 417.065 192.388C416.761 192.556 416.401 192.64 415.985 192.64ZM424.898 190.072C424.266 190.072 423.778 189.892 423.434 189.532C423.098 189.172 422.93 188.664 422.93 188.008V184.6H421.754V183.532H421.994C422.282 183.532 422.51 183.444 422.678 183.268C422.846 183.092 422.93 182.86 422.93 182.572V182.044H424.046V183.532H425.498V184.6H424.046V187.972C424.046 188.188 424.078 188.376 424.142 188.536C424.214 188.696 424.33 188.824 424.49 188.92C424.65 189.008 424.862 189.052 425.126 189.052C425.182 189.052 425.25 189.048 425.33 189.04C425.418 189.032 425.498 189.024 425.57 189.016V190C425.466 190.024 425.35 190.04 425.222 190.048C425.094 190.064 424.986 190.072 424.898 190.072ZM427.028 190V183.532H428.144V190H427.028ZM427.028 182.5V181.06H428.144V182.5H427.028ZM432.876 190.144C432.244 190.144 431.68 189.996 431.184 189.7C430.696 189.404 430.312 189 430.032 188.488C429.752 187.976 429.612 187.4 429.612 186.76C429.612 186.112 429.752 185.536 430.032 185.032C430.312 184.528 430.696 184.128 431.184 183.832C431.68 183.536 432.244 183.388 432.876 183.388C433.3 183.388 433.696 183.464 434.064 183.616C434.432 183.768 434.756 183.972 435.036 184.228C435.316 184.484 435.52 184.784 435.648 185.128L434.652 185.608C434.5 185.272 434.268 185 433.956 184.792C433.644 184.576 433.284 184.468 432.876 184.468C432.484 184.468 432.128 184.568 431.808 184.768C431.496 184.968 431.248 185.24 431.064 185.584C430.88 185.928 430.788 186.324 430.788 186.772C430.788 187.204 430.88 187.596 431.064 187.948C431.248 188.292 431.496 188.564 431.808 188.764C432.128 188.964 432.484 189.064 432.876 189.064C433.284 189.064 433.644 188.96 433.956 188.752C434.268 188.536 434.5 188.252 434.652 187.9L435.648 188.404C435.52 188.74 435.316 189.04 435.036 189.304C434.756 189.56 434.432 189.764 434.064 189.916C433.696 190.068 433.3 190.144 432.876 190.144ZM439.422 190.144C438.774 190.144 438.21 189.984 437.73 189.664C437.25 189.344 436.91 188.912 436.71 188.368L437.598 187.936C437.782 188.32 438.034 188.624 438.354 188.848C438.674 189.072 439.03 189.184 439.422 189.184C439.774 189.184 440.066 189.1 440.298 188.932C440.53 188.764 440.646 188.544 440.646 188.272C440.646 188.08 440.59 187.928 440.478 187.816C440.374 187.696 440.246 187.604 440.094 187.54C439.942 187.468 439.802 187.416 439.674 187.384L438.702 187.108C438.118 186.94 437.69 186.7 437.418 186.388C437.154 186.076 437.022 185.712 437.022 185.296C437.022 184.912 437.118 184.58 437.31 184.3C437.51 184.012 437.778 183.788 438.114 183.628C438.458 183.468 438.842 183.388 439.266 183.388C439.834 183.388 440.342 183.532 440.79 183.82C441.246 184.108 441.57 184.512 441.762 185.032L440.85 185.452C440.706 185.116 440.49 184.852 440.202 184.66C439.914 184.46 439.59 184.36 439.23 184.36C438.902 184.36 438.642 184.444 438.45 184.612C438.258 184.772 438.162 184.976 438.162 185.224C438.162 185.408 438.21 185.56 438.306 185.68C438.402 185.792 438.518 185.88 438.654 185.944C438.79 186 438.922 186.048 439.05 186.088L440.106 186.4C440.634 186.552 441.042 186.788 441.33 187.108C441.626 187.428 441.774 187.812 441.774 188.26C441.774 188.62 441.674 188.944 441.474 189.232C441.274 189.52 440.998 189.744 440.646 189.904C440.294 190.064 439.886 190.144 439.422 190.144Z" fill="white" fill-opacity="0.4"/>
<path id="Schedule" d="M472.068 190.144C471.5 190.144 470.98 190.04 470.508 189.832C470.036 189.616 469.636 189.324 469.308 188.956C468.98 188.588 468.744 188.176 468.6 187.72L469.62 187.3C469.836 187.876 470.156 188.32 470.58 188.632C471.012 188.936 471.516 189.088 472.092 189.088C472.444 189.088 472.752 189.032 473.016 188.92C473.28 188.808 473.484 188.652 473.628 188.452C473.78 188.244 473.856 188.004 473.856 187.732C473.856 187.356 473.748 187.06 473.532 186.844C473.324 186.62 473.016 186.452 472.608 186.34L470.964 185.836C470.316 185.636 469.82 185.32 469.476 184.888C469.132 184.456 468.96 183.96 468.96 183.4C468.96 182.912 469.076 182.484 469.308 182.116C469.548 181.74 469.876 181.448 470.292 181.24C470.716 181.024 471.196 180.916 471.732 180.916C472.268 180.916 472.752 181.012 473.184 181.204C473.624 181.396 473.996 181.656 474.3 181.984C474.604 182.304 474.828 182.672 474.972 183.088L473.964 183.508C473.772 183.004 473.484 182.624 473.1 182.368C472.716 182.104 472.264 181.972 471.744 181.972C471.424 181.972 471.14 182.028 470.892 182.14C470.652 182.244 470.464 182.4 470.328 182.608C470.2 182.808 470.136 183.048 470.136 183.328C470.136 183.656 470.24 183.948 470.448 184.204C470.656 184.46 470.972 184.656 471.396 184.792L472.896 185.236C473.6 185.452 474.132 185.76 474.492 186.16C474.852 186.56 475.032 187.056 475.032 187.648C475.032 188.136 474.904 188.568 474.648 188.944C474.4 189.32 474.052 189.616 473.604 189.832C473.164 190.04 472.652 190.144 472.068 190.144ZM479.622 190.144C478.99 190.144 478.426 189.996 477.93 189.7C477.442 189.404 477.058 189 476.778 188.488C476.498 187.976 476.358 187.4 476.358 186.76C476.358 186.112 476.498 185.536 476.778 185.032C477.058 184.528 477.442 184.128 477.93 183.832C478.426 183.536 478.99 183.388 479.622 183.388C480.046 183.388 480.442 183.464 480.81 183.616C481.178 183.768 481.502 183.972 481.782 184.228C482.062 184.484 482.266 184.784 482.394 185.128L481.398 185.608C481.246 185.272 481.014 185 480.702 184.792C480.39 184.576 480.03 184.468 479.622 184.468C479.23 184.468 478.874 184.568 478.554 184.768C478.242 184.968 477.994 185.24 477.81 185.584C477.626 185.928 477.534 186.324 477.534 186.772C477.534 187.204 477.626 187.596 477.81 187.948C477.994 188.292 478.242 188.564 478.554 188.764C478.874 188.964 479.23 189.064 479.622 189.064C480.03 189.064 480.39 188.96 480.702 188.752C481.014 188.536 481.246 188.252 481.398 187.9L482.394 188.404C482.266 188.74 482.062 189.04 481.782 189.304C481.502 189.56 481.178 189.764 480.81 189.916C480.442 190.068 480.046 190.144 479.622 190.144ZM483.852 190V180.916H484.968V184.792L484.764 184.684C484.924 184.276 485.18 183.96 485.532 183.736C485.892 183.504 486.312 183.388 486.792 183.388C487.256 183.388 487.668 183.492 488.028 183.7C488.396 183.908 488.684 184.196 488.892 184.564C489.108 184.932 489.216 185.348 489.216 185.812V190H488.088V186.172C488.088 185.812 488.02 185.508 487.884 185.26C487.756 185.012 487.576 184.82 487.344 184.684C487.112 184.54 486.844 184.468 486.54 184.468C486.244 184.468 485.976 184.54 485.736 184.684C485.496 184.82 485.308 185.016 485.172 185.272C485.036 185.52 484.968 185.82 484.968 186.172V190H483.852ZM493.789 190.144C493.165 190.144 492.609 189.996 492.121 189.7C491.633 189.404 491.249 189 490.969 188.488C490.689 187.968 490.549 187.388 490.549 186.748C490.549 186.1 490.685 185.524 490.957 185.02C491.237 184.516 491.613 184.12 492.085 183.832C492.565 183.536 493.101 183.388 493.693 183.388C494.173 183.388 494.597 183.476 494.965 183.652C495.341 183.82 495.657 184.052 495.913 184.348C496.177 184.636 496.377 184.968 496.513 185.344C496.657 185.712 496.729 186.096 496.729 186.496C496.729 186.584 496.721 186.684 496.705 186.796C496.697 186.9 496.685 187 496.669 187.096H491.365V186.136H496.021L495.493 186.568C495.565 186.152 495.525 185.78 495.373 185.452C495.221 185.124 494.997 184.864 494.701 184.672C494.405 184.48 494.069 184.384 493.693 184.384C493.317 184.384 492.973 184.48 492.661 184.672C492.349 184.864 492.105 185.14 491.929 185.5C491.761 185.852 491.693 186.272 491.725 186.76C491.693 187.232 491.765 187.648 491.941 188.008C492.125 188.36 492.381 188.636 492.709 188.836C493.045 189.028 493.409 189.124 493.801 189.124C494.233 189.124 494.597 189.024 494.893 188.824C495.189 188.624 495.429 188.368 495.613 188.056L496.549 188.536C496.421 188.832 496.221 189.104 495.949 189.352C495.685 189.592 495.369 189.784 495.001 189.928C494.641 190.072 494.237 190.144 493.789 190.144ZM501.124 190.144C500.516 190.144 499.968 189.996 499.48 189.7C499 189.404 498.62 189 498.34 188.488C498.06 187.976 497.92 187.404 497.92 186.772C497.92 186.124 498.06 185.548 498.34 185.044C498.62 184.532 499 184.128 499.48 183.832C499.968 183.536 500.516 183.388 501.124 183.388C501.66 183.388 502.136 183.504 502.552 183.736C502.968 183.96 503.296 184.264 503.536 184.648L503.356 184.924V180.916H504.484V190H503.392V188.62L503.536 188.812C503.312 189.236 502.984 189.564 502.552 189.796C502.128 190.028 501.652 190.144 501.124 190.144ZM501.22 189.064C501.628 189.064 501.992 188.964 502.312 188.764C502.632 188.564 502.884 188.292 503.068 187.948C503.26 187.596 503.356 187.204 503.356 186.772C503.356 186.332 503.26 185.94 503.068 185.596C502.884 185.244 502.632 184.968 502.312 184.768C501.992 184.568 501.628 184.468 501.22 184.468C500.82 184.468 500.456 184.572 500.128 184.78C499.808 184.98 499.556 185.252 499.372 185.596C499.188 185.932 499.096 186.324 499.096 186.772C499.096 187.204 499.188 187.596 499.372 187.948C499.556 188.292 499.808 188.564 500.128 188.764C500.448 188.964 500.812 189.064 501.22 189.064ZM508.504 190.144C508.04 190.144 507.62 190.036 507.244 189.82C506.876 189.604 506.588 189.304 506.38 188.92C506.18 188.528 506.08 188.08 506.08 187.576V183.532H507.196V187.456C507.196 187.776 507.26 188.056 507.388 188.296C507.524 188.536 507.708 188.724 507.94 188.86C508.18 188.996 508.452 189.064 508.756 189.064C509.06 189.064 509.328 188.996 509.56 188.86C509.8 188.724 509.984 188.528 510.112 188.272C510.248 188.016 510.316 187.712 510.316 187.36V183.532H511.444V190H510.352V188.74L510.532 188.848C510.38 189.256 510.12 189.576 509.752 189.808C509.392 190.032 508.976 190.144 508.504 190.144ZM513.173 190V180.916H514.289V190H513.173ZM518.996 190.144C518.372 190.144 517.816 189.996 517.328 189.7C516.84 189.404 516.456 189 516.176 188.488C515.896 187.968 515.756 187.388 515.756 186.748C515.756 186.1 515.892 185.524 516.164 185.02C516.444 184.516 516.82 184.12 517.292 183.832C517.772 183.536 518.308 183.388 518.9 183.388C519.38 183.388 519.804 183.476 520.172 183.652C520.548 183.82 520.864 184.052 521.12 184.348C521.384 184.636 521.584 184.968 521.72 185.344C521.864 185.712 521.936 186.096 521.936 186.496C521.936 186.584 521.928 186.684 521.912 186.796C521.904 186.9 521.892 187 521.876 187.096H516.572V186.136H521.228L520.7 186.568C520.772 186.152 520.732 185.78 520.58 185.452C520.428 185.124 520.204 184.864 519.908 184.672C519.612 184.48 519.276 184.384 518.9 184.384C518.524 184.384 518.18 184.48 517.868 184.672C517.556 184.864 517.312 185.14 517.136 185.5C516.968 185.852 516.9 186.272 516.932 186.76C516.9 187.232 516.972 187.648 517.148 188.008C517.332 188.36 517.588 188.636 517.916 188.836C518.252 189.028 518.616 189.124 519.008 189.124C519.44 189.124 519.804 189.024 520.1 188.824C520.396 188.624 520.636 188.368 520.82 188.056L521.756 188.536C521.628 188.832 521.428 189.104 521.156 189.352C520.892 189.592 520.576 189.784 520.208 189.928C519.848 190.072 519.444 190.144 518.996 190.144Z" fill="white" fill-opacity="0.4"/>
<path id="CV Status" d="M553.112 190.144C552.48 190.144 551.896 190.032 551.36 189.808C550.832 189.576 550.368 189.252 549.968 188.836C549.576 188.42 549.272 187.932 549.056 187.372C548.84 186.812 548.732 186.2 548.732 185.536C548.732 184.864 548.84 184.248 549.056 183.688C549.272 183.128 549.576 182.64 549.968 182.224C550.36 181.808 550.824 181.488 551.36 181.264C551.896 181.032 552.48 180.916 553.112 180.916C553.728 180.916 554.28 181.024 554.768 181.24C555.264 181.456 555.68 181.736 556.016 182.08C556.36 182.424 556.604 182.792 556.748 183.184L555.668 183.676C555.46 183.18 555.136 182.78 554.696 182.476C554.256 182.164 553.728 182.008 553.112 182.008C552.488 182.008 551.932 182.156 551.444 182.452C550.964 182.748 550.588 183.16 550.316 183.688C550.044 184.216 549.908 184.832 549.908 185.536C549.908 186.232 550.044 186.844 550.316 187.372C550.588 187.9 550.964 188.312 551.444 188.608C551.932 188.904 552.488 189.052 553.112 189.052C553.728 189.052 554.256 188.9 554.696 188.596C555.136 188.284 555.46 187.88 555.668 187.384L556.748 187.876C556.604 188.268 556.36 188.636 556.016 188.98C555.68 189.324 555.264 189.604 554.768 189.82C554.28 190.036 553.728 190.144 553.112 190.144ZM560.712 190L557.484 181.06H558.744L561.48 188.92H561.228L563.964 181.06H565.224L562.008 190H560.712ZM571.498 190.144C570.93 190.144 570.41 190.04 569.938 189.832C569.466 189.616 569.066 189.324 568.738 188.956C568.41 188.588 568.174 188.176 568.03 187.72L569.05 187.3C569.266 187.876 569.586 188.32 570.01 188.632C570.442 188.936 570.946 189.088 571.522 189.088C571.874 189.088 572.182 189.032 572.446 188.92C572.71 188.808 572.914 188.652 573.058 188.452C573.21 188.244 573.286 188.004 573.286 187.732C573.286 187.356 573.178 187.06 572.962 186.844C572.754 186.62 572.446 186.452 572.038 186.34L570.394 185.836C569.746 185.636 569.25 185.32 568.906 184.888C568.562 184.456 568.39 183.96 568.39 183.4C568.39 182.912 568.506 182.484 568.738 182.116C568.978 181.74 569.306 181.448 569.722 181.24C570.146 181.024 570.626 180.916 571.162 180.916C571.698 180.916 572.182 181.012 572.614 181.204C573.054 181.396 573.426 181.656 573.73 181.984C574.034 182.304 574.258 182.672 574.402 183.088L573.394 183.508C573.202 183.004 572.914 182.624 572.53 182.368C572.146 182.104 571.694 181.972 571.174 181.972C570.854 181.972 570.57 182.028 570.322 182.14C570.082 182.244 569.894 182.4 569.758 182.608C569.63 182.808 569.566 183.048 569.566 183.328C569.566 183.656 569.67 183.948 569.878 184.204C570.086 184.46 570.402 184.656 570.826 184.792L572.326 185.236C573.03 185.452 573.562 185.76 573.922 186.16C574.282 186.56 574.462 187.056 574.462 187.648C574.462 188.136 574.334 188.568 574.078 188.944C573.83 189.32 573.482 189.616 573.034 189.832C572.594 190.04 572.082 190.144 571.498 190.144ZM578.68 190.072C578.048 190.072 577.56 189.892 577.216 189.532C576.88 189.172 576.712 188.664 576.712 188.008V184.6H575.536V183.532H575.776C576.064 183.532 576.292 183.444 576.46 183.268C576.628 183.092 576.712 182.86 576.712 182.572V182.044H577.828V183.532H579.28V184.6H577.828V187.972C577.828 188.188 577.86 188.376 577.924 188.536C577.996 188.696 578.112 188.824 578.271 188.92C578.432 189.008 578.644 189.052 578.908 189.052C578.964 189.052 579.032 189.048 579.112 189.04C579.2 189.032 579.28 189.024 579.352 189.016V190C579.248 190.024 579.132 190.04 579.004 190.048C578.876 190.064 578.768 190.072 578.68 190.072ZM582.623 190.144C582.199 190.144 581.823 190.068 581.495 189.916C581.175 189.756 580.923 189.54 580.739 189.268C580.555 188.988 580.463 188.668 580.463 188.308C580.463 187.964 580.535 187.656 580.679 187.384C580.831 187.104 581.063 186.868 581.375 186.676C581.695 186.484 582.095 186.348 582.575 186.268L584.975 185.872V186.808L582.827 187.168C582.411 187.24 582.107 187.372 581.915 187.564C581.731 187.756 581.639 187.992 581.639 188.272C581.639 188.536 581.743 188.756 581.951 188.932C582.167 189.108 582.435 189.196 582.755 189.196C583.163 189.196 583.515 189.112 583.811 188.944C584.115 188.768 584.351 188.532 584.519 188.236C584.695 187.94 584.783 187.612 584.783 187.252V185.608C584.783 185.256 584.651 184.972 584.387 184.756C584.131 184.532 583.791 184.42 583.367 184.42C582.999 184.42 582.671 184.516 582.383 184.708C582.103 184.892 581.895 185.14 581.759 185.452L580.787 184.948C580.907 184.652 581.099 184.388 581.363 184.156C581.627 183.916 581.935 183.728 582.287 183.592C582.639 183.456 583.007 183.388 583.391 183.388C583.887 183.388 584.323 183.484 584.699 183.676C585.075 183.86 585.367 184.12 585.575 184.456C585.791 184.784 585.899 185.168 585.899 185.608V190H584.807V188.776L585.011 188.848C584.875 189.104 584.691 189.328 584.459 189.52C584.227 189.712 583.955 189.864 583.643 189.976C583.331 190.088 582.991 190.144 582.623 190.144ZM590.14 190.072C589.508 190.072 589.02 189.892 588.676 189.532C588.34 189.172 588.172 188.664 588.172 188.008V184.6H586.996V183.532H587.236C587.524 183.532 587.752 183.444 587.92 183.268C588.088 183.092 588.172 182.86 588.172 182.572V182.044H589.288V183.532H590.74V184.6H589.288V187.972C589.288 188.188 589.32 188.376 589.384 188.536C589.456 188.696 589.572 188.824 589.732 188.92C589.892 189.008 590.104 189.052 590.368 189.052C590.424 189.052 590.492 189.048 590.572 189.04C590.66 189.032 590.74 189.024 590.812 189.016V190C590.708 190.024 590.592 190.04 590.464 190.048C590.336 190.064 590.228 190.072 590.14 190.072ZM594.562 190.144C594.098 190.144 593.678 190.036 593.302 189.82C592.934 189.604 592.646 189.304 592.438 188.92C592.238 188.528 592.138 188.08 592.138 187.576V183.532H593.254V187.456C593.254 187.776 593.318 188.056 593.446 188.296C593.582 188.536 593.766 188.724 593.998 188.86C594.238 188.996 594.51 189.064 594.814 189.064C595.118 189.064 595.386 188.996 595.618 188.86C595.858 188.724 596.042 188.528 596.17 188.272C596.306 188.016 596.374 187.712 596.374 187.36V183.532H597.502V190H596.41V188.74L596.59 188.848C596.438 189.256 596.178 189.576 595.81 189.808C595.45 190.032 595.034 190.144 594.562 190.144ZM601.547 190.144C600.899 190.144 600.335 189.984 599.855 189.664C599.375 189.344 599.035 188.912 598.835 188.368L599.723 187.936C599.907 188.32 600.159 188.624 600.479 188.848C600.799 189.072 601.155 189.184 601.547 189.184C601.899 189.184 602.191 189.1 602.423 188.932C602.655 188.764 602.771 188.544 602.771 188.272C602.771 188.08 602.715 187.928 602.603 187.816C602.499 187.696 602.371 187.604 602.219 187.54C602.067 187.468 601.927 187.416 601.799 187.384L600.827 187.108C600.243 186.94 599.815 186.7 599.543 186.388C599.279 186.076 599.147 185.712 599.147 185.296C599.147 184.912 599.243 184.58 599.435 184.3C599.635 184.012 599.903 183.788 600.239 183.628C600.583 183.468 600.967 183.388 601.391 183.388C601.959 183.388 602.467 183.532 602.915 183.82C603.371 184.108 603.695 184.512 603.887 185.032L602.975 185.452C602.831 185.116 602.615 184.852 602.327 184.66C602.039 184.46 601.715 184.36 601.355 184.36C601.027 184.36 600.767 184.444 600.575 184.612C600.383 184.772 600.287 184.976 600.287 185.224C600.287 185.408 600.335 185.56 600.431 185.68C600.527 185.792 600.643 185.88 600.779 185.944C600.915 186 601.047 186.048 601.175 186.088L602.231 186.4C602.759 186.552 603.167 186.788 603.455 187.108C603.751 187.428 603.899 187.812 603.899 188.26C603.899 188.62 603.799 188.944 603.599 189.232C603.399 189.52 603.123 189.744 602.771 189.904C602.419 190.064 602.011 190.144 601.547 190.144Z" fill="white" fill-opacity="0.4"/>
<g id="Group 1">
<rect id="Rectangle 5" x="32" y="98" width="16" height="16" rx="8" fill="#0A111F"/>
<rect id="Rectangle 6" x="54" y="98" width="65" height="16" rx="8" fill="#0A111F"/>
</g>
<g id="Group 2">
<rect id="Rectangle 5_2" x="32" y="132" width="16" height="16" rx="8" fill="#0A111F"/>
<rect id="Rectangle 6_2" x="54" y="132" width="65" height="16" rx="8" fill="#0A111F"/>
</g>
<g id="Group 3">
<rect id="Rectangle 5_3" x="32" y="166" width="16" height="16" rx="8" fill="#0A111F"/>
<rect id="Rectangle 6_3" x="54" y="166" width="65" height="16" rx="8" fill="#0A111F"/>
</g>
<g id="Group 4">
<rect id="Rectangle 5_4" x="32" y="215" width="16" height="16" rx="8" fill="#0A111F"/>
<rect id="Rectangle 6_4" x="54" y="215" width="65" height="16" rx="8" fill="#0A111F"/>
</g>
<g id="Group 32">
<rect id="Rectangle 5_5" x="32" y="442" width="16" height="16" rx="8" fill="#0A111F"/>
<rect id="Rectangle 6_5" x="54" y="442" width="65" height="16" rx="8" fill="#0A111F"/>
</g>
<g id="Group 30">
<g id="Group 5">
<g id="Group 26">
<rect id="Rectangle 5_6" x="205" y="223" width="23" height="23" rx="11.5" fill="#192541"/>
<rect id="Rectangle 6_6" x="236" y="223" width="65" height="11" rx="5.5" fill="#192541"/>
<rect id="Rectangle 7_2" x="236" y="239" width="109" height="7" rx="3.5" fill="#192541"/>
</g>
</g>
<g id="Group 6">
<g id="Group 26_2">
<rect id="Rectangle 6_7" x="407" y="228" width="65" height="11" rx="5.5" fill="#192541"/>
</g>
</g>
<g id="Group 7">
<g id="Group 26_3">
<rect id="Rectangle 6_8" x="561" y="228" width="65" height="11" rx="5.5" fill="#55F5A3"/>
</g>
</g>
<g id="Group 8">
<g id="Group 26_4">
<rect id="Rectangle 6_9" x="698" y="228" width="65" height="11" rx="5.5" fill="#192541"/>
</g>
</g>
</g>
<g id="Group 29">
<g id="Group 9">
<g id="Group 26_5">
<rect id="Rectangle 5_7" x="205" y="272" width="23" height="23" rx="11.5" fill="#192541"/>
<rect id="Rectangle 6_10" x="236" y="272" width="65" height="11" rx="5.5" fill="#192541"/>
<rect id="Rectangle 7_3" x="236" y="288" width="109" height="7" rx="3.5" fill="#192541"/>
</g>
</g>
<g id="Group 10">
<g id="Group 26_6">
<rect id="Rectangle 6_11" x="407" y="277" width="65" height="11" rx="5.5" fill="#192541"/>
</g>
</g>
<g id="Group 11">
<g id="Group 26_7">
<rect id="Rectangle 6_12" x="561" y="277" width="65" height="11" rx="5.5" fill="#55F5A3"/>
</g>
</g>
<g id="Group 12">
<g id="Group 26_8">
<rect id="Rectangle 6_13" x="698" y="277" width="65" height="11" rx="5.5" fill="#192541"/>
</g>
</g>
</g>
<g id="Group 28">
<g id="Group 13">
<g id="Group 26_9">
<rect id="Rectangle 5_8" x="205" y="321" width="23" height="23" rx="11.5" fill="#192541"/>
<rect id="Rectangle 6_14" x="236" y="321" width="65" height="11" rx="5.5" fill="#192541"/>
<rect id="Rectangle 7_4" x="236" y="337" width="109" height="7" rx="3.5" fill="#192541"/>
</g>
</g>
<g id="Group 14">
<g id="Group 26_10">
<rect id="Rectangle 6_15" x="407" y="326" width="65" height="11" rx="5.5" fill="#192541"/>
</g>
</g>
<g id="Group 15">
<g id="Group 26_11">
<rect id="Rectangle 6_16" x="561" y="326" width="65" height="11" rx="5.5" fill="#55F5A3"/>
</g>
</g>
<g id="Group 16">
<g id="Group 26_12">
<rect id="Rectangle 6_17" x="698" y="326" width="65" height="11" rx="5.5" fill="#192541"/>
</g>
</g>
</g>
<g id="Group 27">
<g id="Group 17">
<g id="Group 26_13">
<rect id="Rectangle 5_9" x="205" y="370" width="23" height="23" rx="11.5" fill="#192541"/>
<rect id="Rectangle 6_18" x="236" y="370" width="65" height="11" rx="5.5" fill="#192541"/>
<rect id="Rectangle 7_5" x="236" y="386" width="109" height="7" rx="3.5" fill="#192541"/>
</g>
</g>
<g id="Group 18">
<g id="Group 26_14">
<rect id="Rectangle 6_19" x="407" y="375" width="65" height="11" rx="5.5" fill="#192541"/>
</g>
</g>
<g id="Group 19">
<g id="Group 26_15">
<rect id="Rectangle 6_20" x="561" y="375" width="65" height="11" rx="5.5" fill="#FF5858"/>
</g>
</g>
<g id="Group 20">
<g id="Group 26_16">
<rect id="Rectangle 6_21" x="698" y="375" width="65" height="11" rx="5.5" fill="#192541"/>
</g>
</g>
</g>
<g id="Group 31">
<g id="Group 17_2">
<g id="Group 26_17">
<rect id="Rectangle 5_10" x="205" y="419" width="23" height="23" rx="11.5" fill="#192541"/>
<rect id="Rectangle 6_22" x="236" y="419" width="65" height="11" rx="5.5" fill="#192541"/>
<rect id="Rectangle 7_6" x="236" y="435" width="109" height="7" rx="3.5" fill="#192541"/>
</g>
</g>
<g id="Group 18_2">
<g id="Group 26_18">
<rect id="Rectangle 6_23" x="407" y="424" width="65" height="11" rx="5.5" fill="#192541"/>
</g>
</g>
<g id="Group 19_2">
<g id="Group 26_19">
<rect id="Rectangle 6_24" x="561" y="424" width="65" height="11" rx="5.5" fill="#FF5858"/>
</g>
</g>
<g id="Group 20_2">
<g id="Group 26_20">
<rect id="Rectangle 6_25" x="698" y="424" width="65" height="11" rx="5.5" fill="#192541"/>
</g>
</g>
</g>
<g id="logo">
<g id="Icon">
<g clip-path="url(#clip1_108_8107)">
<rect x="32" y="34" width="38" height="38" rx="19" fill="#55F5A3"/>
<path id="Vector 1" d="M50.2762 45.5692C50.4932 44.3539 49.684 43.1928 48.4687 42.9758C47.2534 42.7588 46.0923 43.568 45.8753 44.7833L50.2762 45.5692ZM43.0811 60.4304C42.8641 61.6457 43.6734 62.8068 44.8887 63.0238C46.104 63.2408 47.2651 62.4316 47.4821 61.2163L43.0811 60.4304ZM45.8753 44.7833L44.4782 52.6069L48.8792 53.3927L50.2762 45.5692L45.8753 44.7833ZM44.4782 52.6069L43.0811 60.4304L47.4821 61.2163L48.8792 53.3927L44.4782 52.6069ZM46.6787 50.7645H31.311V55.2351H46.6787V50.7645Z" fill="#181818"/>
<path id="Vector 2" d="M52.0223 60.4308C51.8053 61.6461 52.6146 62.8072 53.8299 63.0242C55.0452 63.2412 56.2063 62.432 56.4233 61.2167L52.0223 60.4308ZM59.2174 45.5696C59.4344 44.3543 58.6252 43.1932 57.4099 42.9762C56.1946 42.7592 55.0335 43.5684 54.8165 44.7837L59.2174 45.5696ZM56.4233 61.2167L57.8204 53.3931L53.4194 52.6073L52.0223 60.4308L56.4233 61.2167ZM57.8204 53.3931L59.2174 45.5696L54.8165 44.7837L53.4194 52.6073L57.8204 53.3931ZM55.6199 55.2355H70.4287V50.7649H55.6199V55.2355Z" fill="#181818"/>
</g>
</g>
</g>
<rect id="Rectangle 429" x="204" y="128" width="40" height="20" rx="6" fill="#55F5A3"/>
</g>
<defs>
<clipPath id="clip0_108_8107">
<rect width="750" height="484" fill="white"/>
</clipPath>
<clipPath id="clip1_108_8107">
<rect x="32" y="34" width="38" height="38" rx="19" fill="white"/>
</clipPath>
</defs>
</svg>
