<svg width="115" height="38" viewBox="0 0 115 38" fill="none" xmlns="http://www.w3.org/2000/svg">
<g clip-path="url(#clip0_21_177)">
<rect width="38" height="38" rx="19" fill="#55F5A3"/>
<path d="M18.2762 11.5694C18.4932 10.3541 17.684 9.193 16.4687 8.97598C15.2534 8.75897 14.0923 9.56823 13.8753 10.7835L18.2762 11.5694ZM11.0811 26.4306C10.8641 27.6459 11.6734 28.807 12.8887 29.024C14.104 29.241 15.2651 28.4318 15.4821 27.2165L11.0811 26.4306ZM13.8753 10.7835L12.4782 18.6071L16.8792 19.3929L18.2762 11.5694L13.8753 10.7835ZM12.4782 18.6071L11.0811 26.4306L15.4821 27.2165L16.8792 19.3929L12.4782 18.6071ZM14.6787 16.7647H-0.688965V21.2353H14.6787V16.7647Z" fill="#181818"/>
<path d="M20.0223 26.4306C19.8053 27.6459 20.6146 28.807 21.8299 29.024C23.0452 29.241 24.2063 28.4318 24.4233 27.2165L20.0223 26.4306ZM27.2174 11.5694C27.4344 10.3541 26.6252 9.193 25.4099 8.97599C24.1946 8.75897 23.0335 9.56824 22.8165 10.7835L27.2174 11.5694ZM24.4233 27.2165L25.8204 19.3929L21.4194 18.6071L20.0223 26.4306L24.4233 27.2165ZM25.8204 19.3929L27.2174 11.5694L22.8165 10.7835L21.4194 18.6071L25.8204 19.3929ZM23.6199 21.2353H38.4287V16.7647H23.6199V21.2353Z" fill="#181818"/>
</g>
<path d="M47.9271 30V7.65H52.0071V17.4H61.5171V7.65H65.6271V30H61.5171V21H52.0071V30H47.9271ZM71.579 36.6C71.139 36.6 70.709 36.56 70.289 36.48C69.869 36.42 69.489 36.3 69.149 36.12V32.85C69.409 32.91 69.719 32.97 70.079 33.03C70.459 33.09 70.809 33.12 71.129 33.12C72.029 33.12 72.679 32.91 73.079 32.49C73.499 32.09 73.869 31.55 74.189 30.87L75.269 28.35L75.209 31.65L68.099 13.68H72.329L77.309 26.94H75.809L80.759 13.68H85.019L77.909 31.65C77.489 32.69 76.979 33.58 76.379 34.32C75.779 35.06 75.079 35.62 74.279 36C73.499 36.4 72.599 36.6 71.579 36.6ZM87.1772 30V13.68H90.8672V17.31L90.5672 16.77C90.9472 15.55 91.5372 14.7 92.3372 14.22C93.1572 13.74 94.1372 13.5 95.2772 13.5H96.2372V16.98H94.8272C93.7072 16.98 92.8072 17.33 92.1272 18.03C91.4472 18.71 91.1072 19.67 91.1072 20.91V30H87.1772ZM106.138 30.36C104.458 30.36 102.988 29.98 101.728 29.22C100.468 28.46 99.4879 27.43 98.7879 26.13C98.0879 24.83 97.7379 23.39 97.7379 21.81C97.7379 20.17 98.0879 18.72 98.7879 17.46C99.5079 16.18 100.478 15.17 101.698 14.43C102.938 13.69 104.318 13.32 105.838 13.32C107.118 13.32 108.238 13.53 109.198 13.95C110.178 14.37 111.008 14.95 111.688 15.69C112.368 16.43 112.888 17.28 113.248 18.24C113.608 19.18 113.788 20.2 113.788 21.3C113.788 21.58 113.768 21.87 113.728 22.17C113.708 22.47 113.658 22.73 113.578 22.95H100.978V19.95H111.358L109.498 21.36C109.678 20.44 109.628 19.62 109.348 18.9C109.088 18.18 108.648 17.61 108.028 17.19C107.428 16.77 106.698 16.56 105.838 16.56C105.018 16.56 104.288 16.77 103.648 17.19C103.008 17.59 102.518 18.19 102.178 18.99C101.858 19.77 101.738 20.72 101.818 21.84C101.738 22.84 101.868 23.73 102.208 24.51C102.568 25.27 103.088 25.86 103.768 26.28C104.468 26.7 105.268 26.91 106.168 26.91C107.068 26.91 107.828 26.72 108.448 26.34C109.088 25.96 109.588 25.45 109.948 24.81L113.128 26.37C112.808 27.15 112.308 27.84 111.628 28.44C110.948 29.04 110.138 29.51 109.198 29.85C108.278 30.19 107.258 30.36 106.138 30.36Z" fill="#181818"/>
<defs>
<clipPath id="clip0_21_177">
<rect width="38" height="38" rx="19" fill="white"/>
</clipPath>
</defs>
</svg>
