<svg width="360" height="326" viewBox="0 0 360 326" fill="none" xmlns="http://www.w3.org/2000/svg">
<style xmlns="http://www.w3.org/2000/svg">
        @keyframes dash {
            to {
                stroke-dashoffset: 1000;
            }
        }

        #anim {
            animation: dash 30s linear infinite;
            stroke-dasharray: 8;
        }
    </style>
<g id="Light=true, State=Register">
<rect id="Rectangle 298" x="23" y="64" width="48" height="48" rx="24" fill="#F2F2F4"/>
<rect id="Rectangle 299" x="84" y="78" width="130" height="19" rx="9.5" fill="#F2F2F4"/>
<rect id="Rectangle 300" x="206" y="278" width="130" height="13" rx="6.5" fill="#55F5A3"/>
<g id="Frame 188">
<path id="Full name" d="M48.328 174V162.08H55.88V163.52H49.896V167.376H55.32V168.816H49.896V174H48.328ZM60.3799 174.192C59.7612 174.192 59.2012 174.048 58.6999 173.76C58.2092 173.472 57.8252 173.072 57.5479 172.56C57.2812 172.037 57.1479 171.44 57.1479 170.768V165.376H58.6359V170.608C58.6359 171.035 58.7212 171.408 58.8919 171.728C59.0732 172.048 59.3185 172.299 59.6279 172.48C59.9479 172.661 60.3105 172.752 60.7159 172.752C61.1212 172.752 61.4785 172.661 61.7879 172.48C62.1079 172.299 62.3532 172.037 62.5239 171.696C62.7052 171.355 62.7959 170.949 62.7959 170.48V165.376H64.2999V174H62.8439V172.32L63.0839 172.464C62.8812 173.008 62.5345 173.435 62.0439 173.744C61.5639 174.043 61.0092 174.192 60.3799 174.192ZM66.6051 174V161.888H68.0931V174H66.6051ZM70.402 174V161.888H71.89V174H70.402ZM76.9645 174V165.376H78.4205V167.056L78.1805 166.912C78.3938 166.368 78.7352 165.947 79.2045 165.648C79.6845 165.339 80.2445 165.184 80.8845 165.184C81.5032 165.184 82.0525 165.323 82.5325 165.6C83.0232 165.877 83.4072 166.261 83.6845 166.752C83.9725 167.243 84.1165 167.797 84.1165 168.416V174H82.6125V168.896C82.6125 168.416 82.5272 168.011 82.3565 167.68C82.1858 167.349 81.9405 167.093 81.6205 166.912C81.3112 166.72 80.9538 166.624 80.5485 166.624C80.1432 166.624 79.7805 166.72 79.4605 166.912C79.1512 167.093 78.9058 167.355 78.7245 167.696C78.5432 168.027 78.4525 168.427 78.4525 168.896V174H76.9645ZM88.7738 174.192C88.2084 174.192 87.7071 174.091 87.2698 173.888C86.8431 173.675 86.5071 173.387 86.2618 173.024C86.0164 172.651 85.8938 172.224 85.8938 171.744C85.8938 171.285 85.9898 170.875 86.1818 170.512C86.3844 170.139 86.6938 169.824 87.1098 169.568C87.5364 169.312 88.0698 169.131 88.7098 169.024L91.9098 168.496V169.744L89.0458 170.224C88.4911 170.32 88.0858 170.496 87.8298 170.752C87.5844 171.008 87.4618 171.323 87.4618 171.696C87.4618 172.048 87.6004 172.341 87.8778 172.576C88.1658 172.811 88.5231 172.928 88.9498 172.928C89.4938 172.928 89.9631 172.816 90.3578 172.592C90.7631 172.357 91.0778 172.043 91.3018 171.648C91.5364 171.253 91.6538 170.816 91.6538 170.336V168.144C91.6538 167.675 91.4778 167.296 91.1258 167.008C90.7844 166.709 90.3311 166.56 89.7658 166.56C89.2751 166.56 88.8378 166.688 88.4538 166.944C88.0804 167.189 87.8031 167.52 87.6218 167.936L86.3258 167.264C86.4858 166.869 86.7418 166.517 87.0938 166.208C87.4458 165.888 87.8564 165.637 88.3258 165.456C88.7951 165.275 89.2858 165.184 89.7977 165.184C90.4591 165.184 91.0404 165.312 91.5418 165.568C92.0431 165.813 92.4324 166.16 92.7098 166.608C92.9978 167.045 93.1418 167.557 93.1418 168.144V174H91.6858V172.368L91.9578 172.464C91.7764 172.805 91.5311 173.104 91.2218 173.36C90.9124 173.616 90.5498 173.819 90.1338 173.968C89.7178 174.117 89.2644 174.192 88.7738 174.192ZM95.4489 174V165.376H96.9049V167.136L96.6969 166.864C96.9102 166.32 97.2515 165.904 97.7209 165.616C98.1902 165.328 98.7182 165.184 99.3049 165.184C99.9769 165.184 100.58 165.371 101.113 165.744C101.657 166.117 102.03 166.608 102.233 167.216L101.817 167.232C102.041 166.56 102.42 166.053 102.953 165.712C103.486 165.36 104.078 165.184 104.729 165.184C105.326 165.184 105.865 165.323 106.345 165.6C106.836 165.877 107.225 166.261 107.513 166.752C107.801 167.243 107.945 167.797 107.945 168.416V174H106.441V168.896C106.441 168.416 106.356 168.011 106.185 167.68C106.014 167.349 105.78 167.093 105.481 166.912C105.193 166.72 104.852 166.624 104.457 166.624C104.073 166.624 103.726 166.72 103.417 166.912C103.118 167.093 102.878 167.355 102.697 167.696C102.526 168.027 102.441 168.427 102.441 168.896V174H100.937V168.896C100.937 168.416 100.852 168.011 100.681 167.68C100.51 167.349 100.276 167.093 99.9769 166.912C99.6889 166.72 99.3475 166.624 98.9529 166.624C98.5689 166.624 98.2222 166.72 97.9129 166.912C97.6142 167.093 97.3742 167.355 97.1929 167.696C97.0222 168.027 96.9369 168.427 96.9369 168.896V174H95.4489ZM114.026 174.192C113.194 174.192 112.453 173.995 111.802 173.6C111.152 173.205 110.64 172.667 110.266 171.984C109.893 171.291 109.706 170.517 109.706 169.664C109.706 168.8 109.888 168.032 110.25 167.36C110.624 166.688 111.125 166.16 111.754 165.776C112.394 165.381 113.109 165.184 113.898 165.184C114.538 165.184 115.104 165.301 115.594 165.536C116.096 165.76 116.517 166.069 116.858 166.464C117.21 166.848 117.477 167.291 117.658 167.792C117.85 168.283 117.946 168.795 117.946 169.328C117.946 169.445 117.936 169.579 117.914 169.728C117.904 169.867 117.888 170 117.866 170.128H110.794V168.848H117.002L116.298 169.424C116.394 168.869 116.341 168.373 116.138 167.936C115.936 167.499 115.637 167.152 115.242 166.896C114.848 166.64 114.4 166.512 113.898 166.512C113.397 166.512 112.938 166.64 112.522 166.896C112.106 167.152 111.781 167.52 111.546 168C111.322 168.469 111.232 169.029 111.274 169.68C111.232 170.309 111.328 170.864 111.562 171.344C111.808 171.813 112.149 172.181 112.586 172.448C113.034 172.704 113.52 172.832 114.042 172.832C114.618 172.832 115.104 172.699 115.498 172.432C115.893 172.165 116.213 171.824 116.458 171.408L117.706 172.048C117.536 172.443 117.269 172.805 116.906 173.136C116.554 173.456 116.133 173.712 115.642 173.904C115.162 174.096 114.624 174.192 114.026 174.192Z" fill="black"/>
<rect x="23.5" y="141.5" width="312" height="51" rx="9.5" stroke="black"/>
</g>
<g id="Frame 190">
<g id="Frame 189">
<path id="Password" d="M48.328 242.5V230.58H52.536C53.3253 230.58 54.0187 230.729 54.616 231.028C55.2133 231.327 55.6773 231.753 56.008 232.308C56.3493 232.863 56.52 233.513 56.52 234.26C56.52 235.007 56.3493 235.657 56.008 236.212C55.6773 236.756 55.2133 237.183 54.616 237.492C54.0293 237.791 53.336 237.94 52.536 237.94H49.896V242.5H48.328ZM49.896 236.5H52.584C53.064 236.5 53.48 236.409 53.832 236.228C54.184 236.047 54.456 235.785 54.648 235.444C54.84 235.103 54.936 234.708 54.936 234.26C54.936 233.801 54.84 233.407 54.648 233.076C54.456 232.735 54.184 232.473 53.832 232.292C53.48 232.111 53.064 232.02 52.584 232.02H49.896V236.5ZM60.3988 242.692C59.8334 242.692 59.3321 242.591 58.8948 242.388C58.4681 242.175 58.1321 241.887 57.8868 241.524C57.6414 241.151 57.5188 240.724 57.5188 240.244C57.5188 239.785 57.6148 239.375 57.8068 239.012C58.0094 238.639 58.3188 238.324 58.7348 238.068C59.1614 237.812 59.6948 237.631 60.3348 237.524L63.5348 236.996V238.244L60.6708 238.724C60.1161 238.82 59.7108 238.996 59.4548 239.252C59.2094 239.508 59.0868 239.823 59.0868 240.196C59.0868 240.548 59.2254 240.841 59.5028 241.076C59.7908 241.311 60.1481 241.428 60.5748 241.428C61.1188 241.428 61.5881 241.316 61.9828 241.092C62.3881 240.857 62.7028 240.543 62.9268 240.148C63.1614 239.753 63.2788 239.316 63.2788 238.836V236.644C63.2788 236.175 63.1028 235.796 62.7508 235.508C62.4094 235.209 61.9561 235.06 61.3908 235.06C60.9001 235.06 60.4628 235.188 60.0788 235.444C59.7054 235.689 59.4281 236.02 59.2468 236.436L57.9508 235.764C58.1108 235.369 58.3668 235.017 58.7188 234.708C59.0708 234.388 59.4814 234.137 59.9508 233.956C60.4201 233.775 60.9108 233.684 61.4227 233.684C62.0841 233.684 62.6654 233.812 63.1668 234.068C63.6681 234.313 64.0574 234.66 64.3348 235.108C64.6228 235.545 64.7668 236.057 64.7668 236.644V242.5H63.3108V240.868L63.5828 240.964C63.4014 241.305 63.1561 241.604 62.8468 241.86C62.5374 242.116 62.1748 242.319 61.7588 242.468C61.3428 242.617 60.8894 242.692 60.3988 242.692ZM70.1619 242.692C69.2979 242.692 68.5459 242.479 67.9059 242.052C67.2659 241.625 66.8125 241.049 66.5459 240.324L67.7299 239.748C67.9752 240.26 68.3112 240.665 68.7379 240.964C69.1645 241.263 69.6392 241.412 70.1619 241.412C70.6312 241.412 71.0205 241.3 71.3299 241.076C71.6392 240.852 71.7939 240.559 71.7939 240.196C71.7939 239.94 71.7192 239.737 71.5699 239.588C71.4312 239.428 71.2605 239.305 71.0579 239.22C70.8552 239.124 70.6685 239.055 70.4979 239.012L69.2019 238.644C68.4232 238.42 67.8525 238.1 67.4899 237.684C67.1379 237.268 66.9619 236.783 66.9619 236.228C66.9619 235.716 67.0899 235.273 67.3459 234.9C67.6125 234.516 67.9699 234.217 68.4179 234.004C68.8765 233.791 69.3885 233.684 69.9539 233.684C70.7112 233.684 71.3885 233.876 71.9859 234.26C72.5939 234.644 73.0259 235.183 73.2819 235.876L72.0659 236.436C71.8739 235.988 71.5859 235.636 71.2019 235.38C70.8179 235.113 70.3859 234.98 69.9059 234.98C69.4685 234.98 69.1219 235.092 68.8659 235.316C68.6099 235.529 68.4819 235.801 68.4819 236.132C68.4819 236.377 68.5459 236.58 68.6739 236.74C68.8019 236.889 68.9565 237.007 69.1379 237.092C69.3192 237.167 69.4952 237.231 69.6659 237.284L71.0739 237.7C71.7779 237.903 72.3219 238.217 72.7059 238.644C73.1005 239.071 73.2979 239.583 73.2979 240.18C73.2979 240.66 73.1645 241.092 72.8979 241.476C72.6312 241.86 72.2632 242.159 71.7939 242.372C71.3245 242.585 70.7805 242.692 70.1619 242.692ZM78.3338 242.692C77.4698 242.692 76.7178 242.479 76.0778 242.052C75.4378 241.625 74.9844 241.049 74.7178 240.324L75.9018 239.748C76.1471 240.26 76.4831 240.665 76.9098 240.964C77.3364 241.263 77.8111 241.412 78.3338 241.412C78.8031 241.412 79.1924 241.3 79.5018 241.076C79.8111 240.852 79.9658 240.559 79.9658 240.196C79.9658 239.94 79.8911 239.737 79.7418 239.588C79.6031 239.428 79.4324 239.305 79.2298 239.22C79.0271 239.124 78.8404 239.055 78.6698 239.012L77.3738 238.644C76.5951 238.42 76.0244 238.1 75.6618 237.684C75.3098 237.268 75.1338 236.783 75.1338 236.228C75.1338 235.716 75.2618 235.273 75.5178 234.9C75.7844 234.516 76.1418 234.217 76.5898 234.004C77.0484 233.791 77.5604 233.684 78.1258 233.684C78.8831 233.684 79.5604 233.876 80.1578 234.26C80.7658 234.644 81.1978 235.183 81.4538 235.876L80.2378 236.436C80.0458 235.988 79.7578 235.636 79.3738 235.38C78.9898 235.113 78.5578 234.98 78.0778 234.98C77.6404 234.98 77.2938 235.092 77.0378 235.316C76.7818 235.529 76.6538 235.801 76.6538 236.132C76.6538 236.377 76.7178 236.58 76.8458 236.74C76.9738 236.889 77.1284 237.007 77.3098 237.092C77.4911 237.167 77.6671 237.231 77.8378 237.284L79.2458 237.7C79.9498 237.903 80.4938 238.217 80.8778 238.644C81.2724 239.071 81.4698 239.583 81.4698 240.18C81.4698 240.66 81.3364 241.092 81.0698 241.476C80.8031 241.86 80.4351 242.159 79.9658 242.372C79.4964 242.585 78.9524 242.692 78.3338 242.692ZM85.2454 242.5L82.2854 233.876H83.9334L86.2854 241.092L85.7094 241.076L88.0134 233.876H89.4214L91.7254 241.076L91.1494 241.092L93.5174 233.876H95.1494L92.1894 242.5H90.7654L88.4934 235.3H88.9414L86.6694 242.5H85.2454ZM100.42 242.692C99.5879 242.692 98.8359 242.5 98.1639 242.116C97.4919 241.721 96.9585 241.183 96.5639 240.5C96.1692 239.817 95.9719 239.044 95.9719 238.18C95.9719 237.316 96.1639 236.548 96.5479 235.876C96.9425 235.204 97.4759 234.671 98.1479 234.276C98.8199 233.881 99.5772 233.684 100.42 233.684C101.252 233.684 102.004 233.881 102.676 234.276C103.348 234.66 103.876 235.188 104.26 235.86C104.655 236.532 104.852 237.305 104.852 238.18C104.852 239.055 104.649 239.833 104.244 240.516C103.839 241.188 103.3 241.721 102.628 242.116C101.967 242.5 101.231 242.692 100.42 242.692ZM100.42 241.252C100.953 241.252 101.433 241.119 101.86 240.852C102.297 240.585 102.639 240.217 102.884 239.748C103.14 239.279 103.268 238.756 103.268 238.18C103.268 237.593 103.14 237.076 102.884 236.628C102.639 236.169 102.297 235.807 101.86 235.54C101.433 235.263 100.953 235.124 100.42 235.124C99.8759 235.124 99.3852 235.263 98.9479 235.54C98.5212 235.807 98.1799 236.169 97.9239 236.628C97.6679 237.076 97.5399 237.593 97.5399 238.18C97.5399 238.756 97.6679 239.279 97.9239 239.748C98.1799 240.217 98.5212 240.585 98.9479 240.852C99.3852 241.119 99.8759 241.252 100.42 241.252ZM106.793 242.5V233.876H108.249V235.46L108.089 235.236C108.291 234.745 108.601 234.383 109.017 234.148C109.433 233.903 109.939 233.78 110.537 233.78H111.065V235.188H110.313C109.705 235.188 109.214 235.38 108.841 235.764C108.467 236.137 108.281 236.671 108.281 237.364V242.5H106.793ZM116.306 242.692C115.496 242.692 114.765 242.495 114.114 242.1C113.474 241.705 112.968 241.167 112.594 240.484C112.221 239.801 112.034 239.039 112.034 238.196C112.034 237.332 112.221 236.564 112.594 235.892C112.968 235.209 113.474 234.671 114.114 234.276C114.765 233.881 115.496 233.684 116.306 233.684C117.021 233.684 117.656 233.839 118.21 234.148C118.765 234.447 119.202 234.852 119.522 235.364L119.282 235.732V230.388H120.786V242.5H119.33V240.66L119.522 240.916C119.224 241.481 118.786 241.919 118.21 242.228C117.645 242.537 117.01 242.692 116.306 242.692ZM116.434 241.252C116.978 241.252 117.464 241.119 117.89 240.852C118.317 240.585 118.653 240.223 118.898 239.764C119.154 239.295 119.282 238.772 119.282 238.196C119.282 237.609 119.154 237.087 118.898 236.628C118.653 236.159 118.317 235.791 117.89 235.524C117.464 235.257 116.978 235.124 116.434 235.124C115.901 235.124 115.416 235.263 114.978 235.54C114.552 235.807 114.216 236.169 113.97 236.628C113.725 237.076 113.602 237.599 113.602 238.196C113.602 238.772 113.725 239.295 113.97 239.764C114.216 240.223 114.552 240.585 114.978 240.852C115.405 241.119 115.89 241.252 116.434 241.252Z" fill="black"/>
<rect id="Rectangle 302" x="292" y="222" width="27" height="27" rx="13.5" fill="#F2F2F4"/>
</g>
<rect x="23.5" y="210.5" width="312" height="50" rx="9.5" stroke="black"/>
</g>
<path id="anim" d="M1.2844 304.711C0.722757 302.858 0.335709 300.928 0.14239 298.942L0.640039 298.893C0.547414 297.941 0.5 296.976 0.5 296V293.04H0V287.12H0.5V281.2H0V275.28H0.5V269.36H0V263.44H0.5V257.52H0V251.6H0.5V245.68H0V239.76H0.5V233.84H0V227.92H0.5V222H0V216.08H0.5V210.16H0V204.24H0.5V198.32H0V192.4H0.5V186.48H0V180.56H0.5V174.64H0V168.72H0.5V162.8H0V156.88H0.5V150.96H0V145.04H0.5V139.12H0V133.2H0.5V127.28H0V121.36H0.5V115.44H0V109.52H0.5V103.6H0V97.68H0.5V91.76H0V85.84H0.5V79.92H0V74H0.5V68.08H0V62.16H0.5V56.24H0V50.32H0.5V44.4H0V38.48H0.5V32.56H0V26.64H0.5V20.72H0V14.8H0.5V8.88H0V2.96H0.5V0.5H3V0H8.99999V0.5H15V0H21V0.5H27V0H33V0.5H39V0H45V0.5H51V0H57V0.5H63V0H69V0.5H75V0H81V0.5H87V0H93V0.5H99V0H105V0.5H111V0H117V0.5H123V0H129V0.5H135V0H141V0.5H147V0H153V0.5H159V0H165V0.5H171V0H177V0.5H183V0H189V0.5H195V0H201V0.5H207V0H213V0.5H219V0H225V0.5H231V0H237V0.5H243V0H249V0.5H255V0H261V0.5H267V0H273V0.5H279V0H285V0.5H291V0H297V0.5H303V0H309V0.5H315V0H321V0.5H327V0H333V0.5H339V0H345V0.5H351V0H357V0.5H359.5V2.95996H360V8.87997H359.5V14.8H360V20.72H359.5V26.64H360V32.56H359.5V38.48H360V44.4001H359.5V50.3201H360V56.2401H359.5V62.16H360V68.08H359.5V74.0001H360V79.92H359.5V85.84H360V91.76H359.5V97.68H360V103.6H359.5V109.52H360V115.44H359.5V121.36H360V127.28H359.5V133.2H360V139.12H359.5V145.04H360V150.96H359.5V156.88H360V162.8H359.5V168.72H360V174.64H359.5V180.56H360V186.48H359.5V192.4H360V198.32H359.5V204.24H360V210.16H359.5V216.08H360V222H359.5V227.92H360V233.84H359.5V239.76H360V245.68H359.5V251.6H360V257.52H359.5V263.44H360V269.36H359.5V275.28H360V281.2H359.5V287.12H360V293.04H359.5V296C359.5 296.976 359.453 297.941 359.36 298.893L359.858 298.942C359.664 300.928 359.277 302.858 358.716 304.711L358.237 304.566C357.672 306.432 356.927 308.219 356.022 309.908L356.463 310.144C355.532 311.883 354.434 313.52 353.191 315.032L352.805 314.715C351.578 316.208 350.208 317.578 348.715 318.805L349.032 319.191C347.52 320.434 345.883 321.532 344.144 322.463L343.908 322.022C342.219 322.927 340.432 323.672 338.567 324.237L338.711 324.716C336.858 325.277 334.928 325.664 332.942 325.858L332.893 325.36C331.941 325.453 330.976 325.5 330 325.5H327V326H321V325.5H315V326H309V325.5H303V326H297V325.5H291V326H285V325.5H279V326H273V325.5H267V326H261V325.5H255V326H249V325.5H243V326H237V325.5H231V326H225V325.5H219V326H213V325.5H207V326H201V325.5H195V326H189V325.5H183V326H177V325.5H171V326H165V325.5H159V326H153V325.5H147V326H141V325.5H135V326H129V325.5H123V326H117V325.5H111V326H105V325.5H99V326H93V325.5H87V326H81V325.5H75V326H69V325.5H63V326H57V325.5H51V326H45V325.5H39V326H33V325.5H30C29.0236 325.5 28.0585 325.453 27.1068 325.36L27.0583 325.858C25.0719 325.664 23.1423 325.277 21.2885 324.716L21.4335 324.237C19.5681 323.672 17.7808 322.927 16.0917 322.022L15.8556 322.463C14.1168 321.532 12.4805 320.434 10.9679 319.191L11.2853 318.805C9.79228 317.578 8.42183 316.208 7.19512 314.715L6.8088 315.032C5.56603 313.52 4.46835 311.883 3.53703 310.144L3.97779 309.908C3.07308 308.219 2.32808 306.432 1.76292 304.567L1.2844 304.711Z" stroke="url(#paint0_linear_94_962)" stroke-dasharray="6 6"/>
</g>
<defs>
<linearGradient id="paint0_linear_94_962" x1="180" y1="0" x2="180" y2="326" gradientUnits="userSpaceOnUse">
<stop stop-opacity="0"/>
<stop offset="1"/>
</linearGradient>
</defs>
</svg>
