<svg width="360" height="326" viewBox="0 0 360 326" fill="none" xmlns="http://www.w3.org/2000/svg">
    <style xmlns="http://www.w3.org/2000/svg">
        #pulse {
            transform-origin: center;
        }
    </style>
<g id="Light=true, State=upload" clip-path="url(#clip0_94_963)">
<rect width="360" height="326" fill="url(#paint0_radial_94_963)"/>
<path id="Vector 14" d="M0 0V312" stroke="black" stroke-opacity="0.1"/>
<path id="Vector 15" d="M50 0V312" stroke="black" stroke-opacity="0.1"/>
<path id="Vector 16" d="M100 0V312" stroke="black" stroke-opacity="0.1"/>
<path id="Vector 17" d="M150 0V312" stroke="black" stroke-opacity="0.1"/>
<path id="Vector 18" d="M200 0V312" stroke="black" stroke-opacity="0.1"/>
<path id="Vector 19" d="M250 0V312" stroke="black" stroke-opacity="0.1"/>
<path id="Vector 20" d="M300 0V312" stroke="black" stroke-opacity="0.1"/>
<path id="Vector 21" d="M350 0V312" stroke="black" stroke-opacity="0.1"/>
<path id="Vector 24" d="M356 6L-6.00001 5.99998" stroke="black" stroke-opacity="0.1"/>
<path id="Vector 25" d="M356 56L-6.00001 56" stroke="black" stroke-opacity="0.1"/>
<path id="Vector 26" d="M356 106L-6.00001 106" stroke="black" stroke-opacity="0.1"/>
<path id="Vector 27" d="M356 156L-6.00001 156" stroke="black" stroke-opacity="0.1"/>
<path id="Vector 28" d="M356 206L-6.00001 206" stroke="black" stroke-opacity="0.1"/>
<path id="Vector 29" d="M356 256L-6.00001 256" stroke="black" stroke-opacity="0.1"/>
<path id="Vector 30" d="M356 306L-6.00001 306" stroke="black" stroke-opacity="0.1"/>
<rect id="Rectangle 304" width="361" height="312" fill="url(#paint1_radial_94_963)"/>
<g id="pulse">
    <animateTransform attributeName="transform" begin="0s" type="scale" dur="1s" from=".5" to="1" repeatCount="indefinite"/>
    <circle  opacity="0.3" cx="179" cy="163" r="125" fill="#55F5A3"/>
</g>
<circle id="Ellipse 13" cx="179" cy="163" r="54" fill="#55F5A3"/>
<g id="document-text">
<g id="vuesax/bold/document-text">
<g id="document-text_2">
<path id="Vector" d="M188.867 140.157C187.91 139.2 186.253 139.853 186.253 141.183V149.327C186.253 152.733 189.147 155.557 192.67 155.557C194.887 155.58 197.967 155.58 200.603 155.58C201.933 155.58 202.633 154.017 201.7 153.083C198.34 149.7 192.32 143.61 188.867 140.157Z" fill="#181818"/>
<path id="Vector_2" d="M199.833 158.777H193.09C187.56 158.777 183.057 154.273 183.057 148.743V142C183.057 140.717 182.007 139.667 180.723 139.667H170.83C163.643 139.667 157.833 144.333 157.833 152.663V173.337C157.833 181.667 163.643 186.333 170.83 186.333H189.17C196.357 186.333 202.167 181.667 202.167 173.337V161.11C202.167 159.827 201.117 158.777 199.833 158.777ZM178.833 176.417H169.5C168.543 176.417 167.75 175.623 167.75 174.667C167.75 173.71 168.543 172.917 169.5 172.917H178.833C179.79 172.917 180.583 173.71 180.583 174.667C180.583 175.623 179.79 176.417 178.833 176.417ZM183.5 167.083H169.5C168.543 167.083 167.75 166.29 167.75 165.333C167.75 164.377 168.543 163.583 169.5 163.583H183.5C184.457 163.583 185.25 164.377 185.25 165.333C185.25 166.29 184.457 167.083 183.5 167.083Z" fill="#181818"/>
</g>
</g>
</g>
<path id="cv" d="M167.22 152.12C166.693 152.12 166.223 151.997 165.81 151.75C165.403 151.503 165.083 151.167 164.85 150.74C164.617 150.313 164.5 149.833 164.5 149.3C164.5 148.76 164.617 148.28 164.85 147.86C165.083 147.44 165.403 147.107 165.81 146.86C166.223 146.613 166.693 146.49 167.22 146.49C167.573 146.49 167.903 146.553 168.21 146.68C168.517 146.807 168.787 146.977 169.02 147.19C169.253 147.403 169.423 147.653 169.53 147.94L168.7 148.34C168.573 148.06 168.38 147.833 168.12 147.66C167.86 147.48 167.56 147.39 167.22 147.39C166.893 147.39 166.597 147.473 166.33 147.64C166.07 147.807 165.863 148.033 165.71 148.32C165.557 148.607 165.48 148.937 165.48 149.31C165.48 149.67 165.557 149.997 165.71 150.29C165.863 150.577 166.07 150.803 166.33 150.97C166.597 151.137 166.893 151.22 167.22 151.22C167.56 151.22 167.86 151.133 168.12 150.96C168.38 150.78 168.573 150.543 168.7 150.25L169.53 150.67C169.423 150.95 169.253 151.2 169.02 151.42C168.787 151.633 168.517 151.803 168.21 151.93C167.903 152.057 167.573 152.12 167.22 152.12ZM172.245 152L170.135 146.61H171.175L172.865 151.17H172.505L174.205 146.61H175.245L173.125 152H172.245Z" fill="white"/>
</g>
<defs>
<radialGradient id="paint0_radial_94_963" cx="0" cy="0" r="1" gradientUnits="userSpaceOnUse" gradientTransform="translate(180 163) rotate(90) scale(163 180)">
<stop stop-color="white" stop-opacity="0"/>
<stop offset="1" stop-color="white"/>
</radialGradient>
<radialGradient id="paint1_radial_94_963" cx="0" cy="0" r="1" gradientUnits="userSpaceOnUse" gradientTransform="translate(180.5 156) rotate(90) scale(156 180.5)">
<stop offset="0.826042" stop-color="white" stop-opacity="0"/>
<stop offset="1" stop-color="white"/>
</radialGradient>
<clipPath id="clip0_94_963">
<rect width="360" height="326" fill="white"/>
</clipPath>
</defs>
</svg>
